<?xml version="1.0" encoding="utf-8"?>
<!-- Generator: Adobe Illustrator 16.0.4, SVG Export Plug-In . SVG Version: 6.00 Build 0)  -->
<!DOCTYPE svg PUBLIC "-//W3C//DTD SVG 1.1//EN" "http://www.w3.org/Graphics/SVG/1.1/DTD/svg11.dtd">
<svg version="1.1" id="Layer_1" xmlns="http://www.w3.org/2000/svg" xmlns:xlink="http://www.w3.org/1999/xlink" x="0px" y="0px"
	 width="488px" height="488px" viewBox="0 0 488 488" enable-background="new 0 0 488 488" xml:space="preserve">
<path fill="none" stroke="#39B54A" stroke-width="4" stroke-linejoin="round" stroke-miterlimit="10" d="M430,244
	c0-102.725-83.272-186-186-186C141.278,58,58,141.275,58,244c0,102.729,83.278,186,186,186C346.728,430,430,346.729,430,244z"/>
<g>
	<g enable-background="new    ">
		<g>
			<path fill="#39B54A" d="M314.297,169.179c13.834,3.171,27.666,6.343,41.501,9.514c-0.182-0.042-0.366-0.076-0.553-0.104
				c-0.186-0.028-0.375-0.048-0.566-0.062c-0.19-0.013-0.384-0.019-0.58-0.018c-0.195,0.001-0.393,0.01-0.593,0.027l-41.354-9.518
				c0.186-0.014,0.371-0.02,0.554-0.02c0.183,0,0.363,0.007,0.543,0.021c0.179,0.014,0.355,0.034,0.53,0.06
				C313.953,169.107,314.126,169.14,314.297,169.179z"/>
		</g>
		<g>
			<path fill="#39B54A" d="M177.851,351.128c-8.424-9.615-16.849-19.231-25.273-28.847c-0.314-0.359-0.6-0.745-0.852-1.156
				c-0.253-0.411-0.473-0.848-0.658-1.308c-0.185-0.459-0.333-0.941-0.443-1.443c-0.11-0.503-0.181-1.025-0.208-1.566l25.135,28.324
				c0.024,0.598,0.094,1.175,0.208,1.728c0.114,0.554,0.271,1.083,0.468,1.586c0.196,0.503,0.432,0.979,0.704,1.428
				S177.511,350.74,177.851,351.128z"/>
		</g>
		<g>
			<polygon fill="#39B54A" points="182.31,192.948 154.893,180.445 312.151,169.02 353.506,178.538 			"/>
		</g>
		<g>
			<polygon fill="#39B54A" points="175.552,345.132 150.417,316.808 144.016,193.041 170.115,207.235 			"/>
		</g>
		<g>
			<g>
				<path fill="#39B54A" d="M142.077,194.262l-0.058-1.119c-0.095-1.842,0.168-3.659,0.782-5.4c0.592-1.681,1.484-3.218,2.651-4.568
					c1.169-1.353,2.555-2.449,4.119-3.259c1.623-0.841,3.365-1.335,5.177-1.466l0.51-0.037l34.833,15.885l-7.612,0.643
					c-1.432,0.121-2.814,0.533-4.109,1.225c-1.268,0.677-2.398,1.591-3.359,2.715c-0.966,1.13-1.709,2.413-2.21,3.813
					c-0.516,1.443-0.747,2.944-0.687,4.462l0.138,3.517L142.077,194.262z"/>
				<path fill="#FFFFFF" d="M154.893,180.445l27.417,12.503c-1.741,0.147-3.391,0.656-4.883,1.453
					c-1.495,0.798-2.83,1.884-3.937,3.18c-1.108,1.296-1.988,2.802-2.573,4.439c-0.584,1.636-0.874,3.4-0.802,5.214l-26.099-14.194
					c-0.083-1.616,0.16-3.183,0.67-4.632c0.511-1.451,1.291-2.782,2.278-3.924c0.987-1.142,2.183-2.096,3.525-2.792
					C151.831,180.997,153.318,180.559,154.893,180.445 M155.623,176.381l-1.02,0.074c-2.085,0.151-4.088,0.719-5.954,1.687
					c-1.789,0.927-3.374,2.181-4.71,3.727c-1.332,1.54-2.349,3.293-3.025,5.21c-0.701,1.989-1.001,4.064-0.893,6.168l0.116,2.237
					l1.968,1.07l26.099,14.194l6.185,3.363l-0.276-7.035c-0.05-1.261,0.143-2.51,0.572-3.711c0.418-1.169,1.04-2.241,1.846-3.185
					c0.799-0.935,1.735-1.692,2.782-2.251c1.053-0.563,2.175-0.898,3.334-0.996l15.225-1.286l-13.902-6.34l-27.417-12.503
					L155.623,176.381L155.623,176.381z"/>
			</g>
		</g>
		<g>
			<g>
				<path fill="#39B54A" d="M185.158,351.792c-0.534,0-1.059-0.05-1.561-0.146c-1.049-0.203-1.994-0.607-2.81-1.201
					c-0.807-0.587-1.453-1.335-1.919-2.223c-0.497-0.945-0.772-2.019-0.818-3.188l-5.437-137.897
					c-0.057-1.454,0.165-2.892,0.658-4.274c0.48-1.343,1.193-2.573,2.119-3.656c0.92-1.078,2.002-1.952,3.214-2.6
					c1.234-0.659,2.552-1.052,3.916-1.167l171.195-14.411c0.149-0.013,0.297-0.019,0.443-0.019c0.678,0,1.326,0.136,1.928,0.403
					c0.72,0.32,1.363,0.821,1.913,1.49c0.583,0.709,1.03,1.571,1.328,2.559c0.322,1.069,0.453,2.235,0.389,3.465l-6.341,119.271
					c-0.058,1.081-0.301,2.173-0.722,3.247c-0.412,1.051-0.975,2.035-1.673,2.926c-0.688,0.878-1.469,1.615-2.32,2.191
					c-0.839,0.566-1.707,0.949-2.578,1.136l-158.932,33.878C186.478,351.719,185.807,351.792,185.158,351.792z"/>
				<path fill="#FFFFFF" d="M354.159,183.51c0.33,0,0.629,0.062,0.91,0.187c0.362,0.162,0.699,0.429,0.998,0.792
					c0.368,0.448,0.668,1.034,0.867,1.695c0.239,0.792,0.335,1.67,0.285,2.609l-6.341,119.272c-0.043,0.812-0.229,1.642-0.553,2.468
					c-0.318,0.812-0.771,1.605-1.312,2.294c-0.521,0.664-1.127,1.239-1.75,1.661c-0.574,0.388-1.147,0.645-1.7,0.764L186.63,349.13
					c-0.502,0.107-0.998,0.162-1.472,0.162c-0.375,0-0.74-0.034-1.085-0.102c-0.687-0.133-1.297-0.391-1.815-0.768
					c-0.494-0.359-0.89-0.818-1.176-1.363c-0.323-0.614-0.503-1.33-0.534-2.125l-5.437-137.896
					c-0.044-1.133,0.128-2.255,0.515-3.335c0.377-1.055,0.937-2.021,1.666-2.874c0.717-0.839,1.555-1.518,2.492-2.018
					c0.933-0.498,1.924-0.794,2.946-0.881l171.195-14.411C354.004,183.513,354.082,183.51,354.159,183.51 M354.159,178.51
					c-0.216,0-0.434,0.009-0.653,0.028L182.31,192.948c-1.741,0.147-3.391,0.656-4.883,1.453c-1.495,0.798-2.83,1.884-3.937,3.18
					c-1.108,1.296-1.988,2.802-2.573,4.439c-0.584,1.636-0.874,3.4-0.802,5.214l5.437,137.897c0.062,1.58,0.453,3.014,1.104,4.253
					c0.65,1.236,1.559,2.279,2.661,3.081c1.099,0.8,2.389,1.359,3.806,1.634c0.654,0.127,1.335,0.192,2.036,0.192
					c0.813,0,1.655-0.089,2.514-0.271l158.934-33.879c1.215-0.26,2.383-0.784,3.457-1.51c1.072-0.726,2.051-1.653,2.887-2.72
					c0.835-1.065,1.529-2.271,2.032-3.555c0.504-1.284,0.817-2.647,0.891-4.027l6.341-119.271c0.082-1.553-0.097-3.012-0.491-4.319
					c-0.396-1.311-1.008-2.472-1.791-3.425c-0.786-0.956-1.744-1.704-2.828-2.186C356.199,178.727,355.21,178.51,354.159,178.51
					L354.159,178.51z"/>
			</g>
		</g>
		<g>
			<g>
				<path fill="#39B54A" d="M225.513,183.161c-1.831,0-4.392-0.336-6.196-1.936c-1.291-1.146-1.344-2.243-1.161-2.962
					c0.038-0.151,0.038-0.151,0.031-0.368l-0.032-1.37c-0.03-1.34,0.125-2.589,0.316-3.972c0.885-6.42,5.124-11.932,11.062-14.385
					c3.106-1.282,6.438-1.411,9.66-1.535c0.772-0.03,1.539-0.059,2.294-0.105l13.312-0.802c1.137-0.069,2.298-0.17,3.471-0.272
					c2.199-0.191,4.475-0.39,6.738-0.39c4.654,0,8.226,0.877,11.239,2.761c2.554,1.598,4.669,3.914,6.118,6.697
					c1.396,2.686,1.732,5.413,1.873,8.195c0.068,0.202,0.114,0.443,0.127,0.729c0.592,1.085,0.345,1.996,0.113,2.483
					c-1.393,2.932-8.426,3.115-8.497,3.115l-0.183-0.003c-1.691-0.07-4.134-0.336-5.824-1.834c-0.83-0.738-1.074-1.531-1.112-2.139
					c-0.104-0.332-0.22-0.757-0.155-1.194c-0.144-0.741-0.108-1.515-0.076-2.22c0.023-0.495,0.045-0.963-0.001-1.297
					c-0.158-1.163-0.641-2.195-1.271-2.735c-0.022-0.001-0.051-0.002-0.086-0.002c-0.24,0-0.554,0.047-0.856,0.093
					c-0.268,0.04-0.518,0.076-0.729,0.091l-19.525,1.373c-0.909,0.064-1.839,0.1-2.775,0.135c-1.871,0.07-3.805,0.143-5.557,0.47
					c-2.349,0.439-3.806,3.425-3.809,5.94c0,0.324,0.021,0.668,0.042,1.017c0.045,0.77,0.093,1.565-0.023,2.351
					c-0.314,2.133-2.712,2.976-3.5,3.252C229.055,182.862,227.222,183.161,225.513,183.161z"/>
				<path fill="#FFFFFF" d="M265.008,156.564c3.665,0,7.255,0.539,10.444,2.533c2.396,1.499,4.388,3.614,5.692,6.118
					c1.418,2.73,1.855,5.532,1.855,8.553c0,0.002,0,0.004,0,0.006c2,2.883-5.328,3.77-6.908,3.77c-0.047,0-0.142,0-0.177-0.002
					c-1.614-0.067-3.65-0.334-4.918-1.458c-0.365-0.325-0.644-0.741-0.625-1.242c-0.012-0.055-0.279-0.801-0.128-0.801
					c0.022,0,0.049,0.015,0.09,0.051c-0.463-1.07-0.054-2.747-0.216-3.938c-0.189-1.392-0.802-2.937-1.949-3.807
					c-0.229-0.173-0.548-0.229-0.896-0.229c-0.58,0-1.239,0.156-1.69,0.187c-0.647,0.046-1.296,0.091-1.944,0.137
					c-2.968,0.209-5.938,0.418-8.906,0.626c-2.891,0.204-5.784,0.407-8.676,0.61c-2.783,0.196-5.762,0.115-8.501,0.626
					c-3.266,0.61-5.03,4.387-5.034,7.413c-0.001,1,0.179,2.173,0.035,3.15c-0.165,1.12-1.591,1.732-2.513,2.056
					c-1.242,0.436-2.887,0.735-4.531,0.735c-1.962,0-3.925-0.427-5.201-1.559c-0.416-0.369-0.849-0.894-0.702-1.47
					c0.108-0.428,0.082-0.521,0.071-0.988c-0.009-0.402-0.018-0.804-0.027-1.207c-0.027-1.216,0.137-2.47,0.304-3.68
					c0.806-5.845,4.668-10.939,10.149-13.204c3.58-1.478,7.673-1.297,11.472-1.529c4.437-0.27,8.874-0.535,13.311-0.802
					C258.158,157.025,261.615,156.564,265.008,156.564 M282.8,173.158c0.044,0,0.118,0.646,0.023,0.646
					c-0.012,0-0.024-0.009-0.041-0.029c0-0.002,0-0.004,0-0.006C282.765,173.311,282.778,173.158,282.8,173.158 M265.008,153.564
					L265.008,153.564c-2.329,0-4.637,0.201-6.869,0.396c-1.193,0.104-2.32,0.202-3.431,0.269l-3.134,0.188
					c-3.393,0.204-6.786,0.407-10.178,0.614c-0.745,0.045-1.5,0.075-2.261,0.104c-3.197,0.123-6.821,0.263-10.174,1.647
					c-6.429,2.656-11.018,8.621-11.976,15.567c-0.192,1.394-0.363,2.761-0.331,4.157l0.183,1.205l0.163,0.233v0.007
					c-1,0.983-0.411,2.721,1.477,4.396c1.708,1.514,4.117,2.314,7.114,2.314c1.872,0,3.846-0.33,5.485-0.904
					c2.682-0.942,4.172-2.439,4.468-4.45c0.139-0.938,0.075-1.852,0.027-2.658c-0.02-0.341-0.044-0.664-0.044-0.927
					c0.002-1.884,1.062-4.183,2.583-4.467c1.642-0.306,3.436-0.374,5.335-0.445c0.926-0.035,1.882-0.071,2.824-0.137l8.675-0.61
					l8.906-0.626l1.945-0.137c0.294-0.021,0.574-0.063,0.846-0.104c0.021-0.003,0.045-0.007,0.068-0.011
					c0.188,0.338,0.359,0.818,0.435,1.375c0.027,0.199,0.006,0.658-0.011,1.026c-0.032,0.702-0.069,1.516,0.062,2.354
					c-0.029,0.551,0.081,1.051,0.188,1.428c0.122,1.109,0.674,2.143,1.593,2.959c2.051,1.818,4.84,2.134,6.76,2.213
					c0.072,0.003,0.154,0.004,0.246,0.004c0.079,0,7.987-0.045,9.852-3.971c0.539-1.136,0.531-2.374,0.003-3.532
					c-0.024-0.211-0.062-0.408-0.111-0.592c-0.155-2.896-0.534-5.742-2.028-8.617c-1.574-3.023-3.875-5.539-6.653-7.277
					C273.78,154.514,269.956,153.564,265.008,153.564L265.008,153.564z"/>
			</g>
		</g>
	</g>
</g>
</svg>
