<?xml version="1.0" encoding="utf-8"?>
<!-- Generator: Adobe Illustrator 16.0.4, SVG Export Plug-In . SVG Version: 6.00 Build 0)  -->
<!DOCTYPE svg PUBLIC "-//W3C//DTD SVG 1.1 Basic//EN" "http://www.w3.org/Graphics/SVG/1.1/DTD/svg11-basic.dtd">
<svg version="1.1" baseProfile="basic" id="Layer_1"
	 xmlns="http://www.w3.org/2000/svg" xmlns:xlink="http://www.w3.org/1999/xlink" x="0px" y="0px" width="488px" height="488px"
	 viewBox="0 0 488 488" xml:space="preserve">
<path fill="none" stroke="#39B54A" stroke-width="4" stroke-linejoin="round" stroke-miterlimit="10" d="M430,244
	c0-102.725-83.272-186-186-186C141.278,58,58,141.275,58,244c0,102.729,83.278,186,186,186C346.728,430,430,346.729,430,244z"/>
<polyline fill="#FFFFFF" points="276.07,183 308.14,192.5 276.07,204 211.93,204 179.86,192.5 211.93,183 276,183 "/>
<g>
	<polygon fill="#39B54A" points="339.375,226.483 310.813,195.409 309.491,195.89 278.841,207 295.946,249.02 	"/>
	<polygon fill="#39B54A" points="179.86,192.5 211.93,204 276.07,204 308.14,192.5 276.07,183 276,183 211.93,183 	"/>
	<polygon fill="#39B54A" points="213.072,208 195.619,250.87 195.869,251 197.874,251 290.619,251 292.131,251 292.381,250.87 
		274.929,208 	"/>
	<polygon fill="#39B54A" points="191.382,253.178 156.363,235.005 235.635,319.124 	"/>
	<polygon fill="#39B54A" points="296.619,253.178 252.036,319.614 334.582,233.477 	"/>
	<polygon fill="#39B54A" points="192.054,249.021 209.156,207.01 178.51,195.797 177.399,195.402 150.308,227.356 	"/>
	<polygon fill="#39B54A" points="290.578,255 197.422,255 244,324.41 	"/>
</g>
</svg>
