<?xml version="1.0" encoding="utf-8"?>
<!-- Generator: Adobe Illustrator 16.0.4, SVG Export Plug-In . SVG Version: 6.00 Build 0)  -->
<!DOCTYPE svg PUBLIC "-//W3C//DTD SVG 1.1//EN" "http://www.w3.org/Graphics/SVG/1.1/DTD/svg11.dtd">
<svg version="1.1" id="Layer_1" xmlns="http://www.w3.org/2000/svg" xmlns:xlink="http://www.w3.org/1999/xlink" x="0px" y="0px"
	 width="488px" height="488px" viewBox="0 0 488 488" enable-background="new 0 0 488 488" xml:space="preserve">
<path fill="none" stroke="#39B54A" stroke-width="4" stroke-linejoin="round" stroke-miterlimit="10" d="M430,244
	c0-102.725-83.272-186-186-186C141.278,58,58,141.275,58,244c0,102.729,83.278,186,186,186C346.728,430,430,346.729,430,244z"/>
<g>
	<path fill="#39B54A" d="M353.12,195.042c-1.108-2.517-4.244-4.881-6.969-5.254l-47.88-6.552c-2.725-0.373-7.115-0.052-9.757,0.713
		l-127.421,36.888c-2.642,0.765-5.697,3.455-6.791,5.978l-23.167,53.468c-1.093,2.523,0.195,5.134,2.863,5.801l97.106,24.275
		c2.668,0.667,6.808,0.103,9.2-1.254l126.107-71.536c2.392-1.356,3.441-4.526,2.334-7.043L353.12,195.042z"/>
</g>
<polygon fill="#FFFFFF" points="162.405,225.089 232.717,237.769 235.022,304.623 225.801,242.379 "/>
<polygon fill="#FFFFFF" points="346.831,192.815 226.954,237.769 230.412,242.379 "/>
<polygon fill="#FFFFFF" points="300.725,215.868 281.129,282.723 285.739,279.265 304.182,214.715 "/>
<polygon fill="#FFFFFF" points="308.793,212.41 290.351,276.959 303.029,268.891 321.472,207.799 "/>
</svg>
