<?xml version="1.0" encoding="utf-8"?>
<!-- Generator: Adobe Illustrator 16.0.4, SVG Export Plug-In . SVG Version: 6.00 Build 0)  -->
<!DOCTYPE svg PUBLIC "-//W3C//DTD SVG 1.1 Basic//EN" "http://www.w3.org/Graphics/SVG/1.1/DTD/svg11-basic.dtd">
<svg version="1.1" baseProfile="basic" id="Layer_1"
	 xmlns="http://www.w3.org/2000/svg" xmlns:xlink="http://www.w3.org/1999/xlink" x="0px" y="0px" width="488px" height="488px"
	 viewBox="0 0 488 488" xml:space="preserve">
<path fill="none" stroke="#39B54A" stroke-width="4" stroke-linejoin="round" stroke-miterlimit="10" d="M430,244
	c0-102.725-83.272-186-186-186C141.278,58,58,141.275,58,244c0,102.729,83.278,186,186,186C346.728,430,430,346.729,430,244z"/>
<path fill="#39B54A" d="M360.081,255.821c-1.861,1.208-3.466,2.493-5.047,4.03l-0.192,0.188l-0.216,0.159
	c-0.545,0.404-1.067,0.81-1.554,1.193c-0.372,0.299-0.745,0.601-1.119,0.904c-2.034,2.965-4.849,4.946-7.576,6.868
	c-2.175,1.532-4.23,2.979-5.785,4.839l-0.163,0.195l-0.188,0.173c-0.536,0.495-1.067,0.991-1.601,1.491
	c-0.808,0.756-1.614,1.514-2.424,2.273c-1.333,1.252-2.669,2.508-4.014,3.76c-2.346,2.254-4.468,4.287-6.656,6.34
	c-1.125,1.055-2.254,2.104-3.392,3.146c-0.521,0.476-1.044,0.951-1.567,1.423c-3.335,3.617-6.923,6.274-10.395,8.844
	c-1.561,1.154-3.033,2.246-4.463,3.406l-0.021,0.016l-0.021,0.017c-0.506,0.399-0.777,0.618-0.787,0.626l-1.446,1.167l-1.825-0.354
	c-6.422-1.244-13.154-3.104-18.564-4.598l-1.916-0.527l-2.241-0.58c-6.778-1.758-12.478-3.271-18.236-4.938
	c-3.231-0.774-6.638-1.575-10.124-2.382c-9.426-2.18-19.471-4.398-30.737-6.795l-5.437-1.199l-3.713-0.818l-6.851-1.512
	l-4.737-1.046l-2.06-0.454l-0.043-0.01l-0.043-0.012c-9.958-2.428-20.042-4.24-29.793-5.993c-9.998-1.798-20.337-3.656-30.343-6.156
	l-0.9-0.224c-0.448-0.111-0.895-0.223-1.341-0.332c-0.575-0.113-1.183-0.205-1.825-0.303c-0.459-0.07-0.945-0.147-1.441-0.233
	c-1.357,0.69-2.743,1.411-4.129,2.336c3.154,3.155,8.41,1.052,12.06,2.724c0.817,0.191,1.635,0.383,2.456,0.571
	c14.769,3.379,30.086,4.474,44.047,8.858c2.134,0.5,4.289,1.006,6.5,1.521c6.652,1.546,13.494,3.137,20.357,4.733
	c3.05,0.709,6.105,1.42,9.149,2.128c14.215,2.873,27.631,6.938,41.027,10.924c3.349,0.997,6.697,1.988,10.056,2.958
	c3.14,0.979,6.154,1.851,9.103,2.646c0.735,0.197,1.468,0.391,2.196,0.578c3,0.627,6.338,1.205,9.697,1.863
	c0.674,0.133,1.348,0.266,2.024,0.406c2.687,0.037,4.789,2.14,8.228,2.757c0,0,0.268-0.229,0.76-0.674
	c2.108-2.046,4.212-4.148,6.743-6.747c0.544-0.534,1.082-1.07,1.618-1.607c2.676-2.689,5.298-5.38,8.44-7.607
	c0.537-0.527,1.072-1.057,1.607-1.586c3.209-3.178,6.396-6.408,9.61-9.617c1.667-1.664,3.339-3.321,5.022-4.954
	c0.422-0.409,0.843-0.815,1.265-1.222c0.422-0.405,0.845-0.81,1.268-1.211c5.432-5.34,12.79-9.545,17.808-14.619
	c0.439-0.319,0.882-0.646,1.326-0.979c3.104-2.322,6.338-4.822,10.478-5.512C365.348,256.639,362.697,256.201,360.081,255.821z"/>
<path fill="#39B54A" d="M357.461,248.329c-2.063,1.607-4.173,3.249-6.111,4.717c-0.509,0.421-1.02,0.847-1.528,1.269
	c-2.915,2.432-5.893,4.973-8.771,7.431c-2.396,2.047-4.875,4.163-7.295,6.196c-1.407,1.201-2.812,2.41-4.228,3.625l-2.574,2.211
	c-7.393,6.339-14.071,12.027-20.939,17.431l-3.094,2.579l-1.393,1.161l-1.793-0.282c-7.604-1.197-15.026-3.078-22.204-4.896
	c-5.563-1.408-11.316-2.865-17.028-3.967l-0.025-0.005l-0.027-0.006c-3.282-0.678-6.566-1.351-9.854-2.021
	c-10.011-2.039-20.143-4.061-29.7-5.963l-3.364-0.701l-4.247-0.887l-11.211-2.341l-0.215-0.045l-9.895-2.065l-1.251-0.262
	c-10.802-1.47-21.204-4.076-31.265-6.598c-9.775-2.449-19.118-4.771-28.775-6.164c-0.859,0.503-1.716,1.011-2.58,1.494
	c-0.837,1.047-2.94,1.047-3.991,2.098c3.154,2.102,6.308,2.102,9.311,2.704c0.775,0.188,1.555,0.386,2.337,0.579
	c19.548,4.883,39.737,7.173,60.124,12.146c2.253,0.498,4.522,0.998,6.798,1.5c2.277,0.502,4.562,1.006,6.85,1.512
	c3.05,0.673,6.105,1.348,9.149,2.019c10.267,2.185,20.528,4.437,30.777,6.804c3.417,0.791,6.833,1.594,10.246,2.412
	c6.084,1.762,12.163,3.365,18.218,4.936c0.757,0.195,1.514,0.393,2.27,0.587c5.817,1.597,13.178,3.7,20.211,5.063
	c0,0,0.283-0.229,0.817-0.651c4.765-3.865,10.021-7.019,14.56-11.987c0.563-0.508,1.126-1.02,1.688-1.531
	c1.123-1.027,2.239-2.064,3.352-3.109c2.227-2.088,4.437-4.207,6.646-6.329c2.164-2.017,4.306-4.037,6.452-6.048
	c0.536-0.502,1.074-1.004,1.615-1.506c4.093-4.894,10.4-6.996,13.423-11.849c0.542-0.444,1.082-0.882,1.622-1.315
	c0.549-0.433,1.101-0.861,1.677-1.289c3.141-3.055,6.294-5.157,10.499-7.26c-0.413,0.205-0.785,0.291-1.135,0.291
	C360.246,250.016,359.216,248.739,357.461,248.329z"/>
<path fill="#39B54A" d="M358.429,238.46c-0.631,0.502-1.254,1.011-1.875,1.519c-2.464,2.013-5.008,4.092-8.029,5.77
	c-0.454,0.37-0.907,0.741-1.36,1.114c-1.708,1.406-3.398,2.826-5.083,4.24c-5.304,4.453-10.787,9.058-16.548,12.983
	c-2.827,2.255-5.439,4.287-7.983,6.208c-2.457,1.855-4.758,3.542-7.036,5.153c-0.396,0.282-0.798,0.562-1.198,0.844
	c-1.191,1.099-2.409,1.937-3.491,2.683c-0.799,0.551-1.555,1.07-2.192,1.623l-0.088,0.075l-0.093,0.07l-0.801,0.614l-1.308,1.011
	l-1.64-0.209c-0.768-0.097-1.537-0.201-2.309-0.312l-0.768-0.115l-0.66-0.375c-0.134-0.075-0.673-0.231-1.49-0.231
	c-0.312,0-0.521,0.022-0.578,0.03l-0.575,0.072l-0.573-0.095c-0.773-0.128-1.553-0.259-2.336-0.392
	c-1.639-0.28-3.293-0.572-4.963-0.867c-4.598-0.812-9.35-1.65-14.172-2.3l-0.045-0.007l-0.045-0.006
	c-3.149-0.498-6.295-0.998-9.514-1.515c-10.695-1.714-24.749-4.103-38.645-7.394l-2.939-0.578l-3.497-0.688l-10.816-2.129
	l-8.74-1.72l-4.909-0.966l-2.681-0.527c-9.82-1.408-19.775-3.675-29.402-5.867c-6.606-1.504-13.436-3.059-20.129-4.313
	c-0.636-0.119-1.269-0.232-1.898-0.337c-0.115,0.003-0.229,0.007-0.343,0.007c-0.477,0-0.914-0.005-1.338-0.029l-0.486-0.013
	l-0.465-0.113c-0.697-0.215-1.82-0.199-3.009-0.249c-1.106-0.045-2.335-0.064-3.614-0.23c-0.179,0.09-0.35,0.191-0.532,0.276
	c-0.693,0.445-1.384,0.896-2.072,1.354c-0.688,0.458-1.375,0.923-2.058,1.396c23.128,2.103,44.154,10.513,67.287,13.638
	c3.719,0.776,7.489,1.563,11.284,2.355c3.794,0.792,7.612,1.589,11.426,2.385c2.542,0.531,5.082,1.062,7.612,1.59
	c9.915,1.974,19.808,3.946,29.681,5.957c3.291,0.67,6.58,1.344,9.865,2.024c13.178,2.538,25.793,6.743,39.1,8.84
	c0,0,1.146-0.954,3.139-2.616c7.021-5.521,13.949-11.436,20.854-17.356c2.294-1.968,4.55-3.91,6.806-5.841
	c5.378-4.518,10.746-9.189,16.104-13.657c0.536-0.446,1.072-0.892,1.607-1.334c4.415-3.343,9.671-7.547,13.876-10.701
	c-1.138-0.568-2.36-0.969-3.63-1.286C358.884,238.103,358.654,238.282,358.429,238.46z"/>
<g>
	<path fill="#39B54A" d="M139.384,237.947c0.753,0.091,1.505,0.205,2.251,0.354c0.716,0.144,1.479,0.284,2.26,0.422
		c13.276,2.348,26.375,4.696,38.944,8.947c2.757,0.493,5.496,0.965,8.215,1.409c2.249,0.416,4.517,0.836,6.798,1.257
		c7.985,1.477,16.131,2.982,24.167,4.469c2.679,0.495,5.345,0.987,7.989,1.477c11.701,2.505,23.334,4.546,35.023,6.263
		c2.922,0.429,5.767,0.817,8.642,1.192c3.384,0.296,7.001,0.649,10.708,1.051c0.741,0.08,1.486,0.163,2.234,0.246
		c0.564-0.072,1.138-0.104,1.717-0.104c4.184,0,8.669,1.661,12.193,1.978c0,0,0.44-0.325,1.234-0.927
		c2.112-2.588,4.215-3.64,5.93-4.334c0.464-0.312,0.945-0.633,1.442-0.965c0.497-0.328,1.01-0.668,1.537-1.017
		c2.505-1.697,4.978-3.429,7.415-5.187c2.427-1.754,4.765-3.52,7.094-5.31c5.354-3.142,10.081-7.382,14.768-11.675
		c0.586-0.536,1.171-1.074,1.756-1.61c0.526-0.512,1.055-1.016,1.582-1.515s1.058-0.99,1.589-1.476
		c1.577-1.259,3.248-2.519,4.986-3.75c0.578-0.41,1.165-0.817,1.759-1.221c3.768-1.326,6.921-5.531,11.126-7.634
		c-4.205-1.051-7.358-1.051-11.11-1.838c-0.75-0.167-1.504-0.315-2.26-0.451c-3.028-0.544-6.11-0.891-9.285-0.908
		c-0.779-0.064-1.56-0.123-2.341-0.181c-3.909-0.288-7.851-0.521-11.789-0.858c-0.652-0.096-1.304-0.201-1.955-0.317
		c-0.649-0.116-1.301-0.241-1.949-0.379c-2.544-0.28-5.053-0.528-7.685-0.778c-4.094-0.613-8.326-1.246-12.643-1.892
		c-32.783-4.908-70.488-10.552-90.687-13.575c-0.696-0.101-1.374-0.199-2.036-0.289c-2.845-0.782-5.978-1.428-9.104-1.428
		c-3.526,0.001-7.044,0.823-10.128,3.207c-0.688,0.378-1.421,0.782-2.194,1.206c-2.319,1.275-4.994,2.746-7.909,4.348
		c-1.942,1.067-3.99,2.192-6.108,3.356c-2.812,1.271-5.593,2.622-8.353,4.03c-6.886,3.9-13.746,7.69-20.593,11.293
		c-0.57,0.3-1.141,0.598-1.711,0.894c-0.57,0.297-1.141,0.591-1.711,0.884c-0.553,0.419-1.113,0.796-1.679,1.14
		c-0.567,0.343-1.139,0.653-1.716,0.939c-5.285,2.112-10.542,3.163-15.798,6.317c4.205,2.102,9.462,1.051,15.117,2.72
		C137.874,237.787,138.63,237.855,139.384,237.947z"/>
	<path fill="#39B54A" d="M353.484,231.496c-0.442,0.304-0.88,0.609-1.312,0.916c-1.599,1.132-3.179,2.319-4.699,3.528
		c-0.481,0.442-0.962,0.888-1.439,1.339c-0.516,0.487-1.029,0.979-1.545,1.479l-0.04,0.04l-0.042,0.039l-0.679,0.621l-1.079,0.989
		c-5.101,4.673-9.773,8.811-15.226,12.046c-2.645,2.032-4.873,3.696-6.999,5.233c-2.548,1.836-5.074,3.603-7.547,5.277l-0.621,0.411
		l-0.9,0.595l-0.286,0.191l-1.151,0.771l-0.343,0.229l-0.384,0.154c-1.268,0.514-2.755,1.224-4.33,3.154l-0.303,0.372l-0.384,0.29
		c-0.819,0.62-1.274,0.956-1.274,0.956l-1.223,0.897l-1.509-0.135c-1.722-0.154-3.544-0.561-5.306-0.953
		c-2.223-0.496-4.522-1.008-6.53-1.008c-0.431,0-0.839,0.023-1.214,0.07l-0.473,0.061l-0.473-0.053l-0.259-0.027
		c-0.657-0.073-1.313-0.147-1.965-0.217c-3.634-0.395-7.208-0.744-10.625-1.041l-0.085-0.009l-0.086-0.011
		c-3.156-0.412-6.004-0.807-8.704-1.202c-12.431-1.826-23.953-3.886-35.224-6.298l-5.125-0.947l-2.81-0.52l-11.025-2.037
		l-13.14-2.43l-5.819-1.076l-0.94-0.174c-2.604-0.427-5.373-0.9-8.233-1.412l-0.294-0.053l-0.283-0.097
		c-12.479-4.222-25.636-6.547-38.36-8.797c-0.812-0.144-1.607-0.289-2.346-0.438c-0.596-0.119-1.234-0.219-1.952-0.306
		c-0.601-0.073-1.267-0.137-2.095-0.202l-0.418-0.033l-0.402-0.119c-1.749-0.516-3.546-0.729-5.316-0.883
		c-2.356,1.401-4.655,2.923-6.567,4.836c0.658,0,1.281,0.047,1.895,0.119c3.362,1.982,7.567,0.932,10.571,1.86
		c0.368,0.021,0.735,0.028,1.107,0.028c0.209,0,0.42-0.002,0.633-0.006c0.777,0.123,1.56,0.264,2.348,0.412
		c16.547,3.103,33.064,7.826,49.46,10.168c2.541,0.5,5.109,1.006,7.693,1.514c6.461,1.272,13.028,2.563,19.557,3.849
		c2.177,0.429,4.348,0.854,6.511,1.281c12.664,3.002,25.565,5.292,38.431,7.354c3.215,0.516,6.357,1.016,9.504,1.512
		c6.655,0.896,13.08,2.129,19.272,3.188c0.774,0.132,1.545,0.262,2.312,0.389c0.287-0.037,0.658-0.062,1.078-0.062
		c1.069,0,2.445,0.167,3.482,0.763c0.753,0.108,1.502,0.208,2.248,0.304c0,0,0.283-0.219,0.808-0.621
		c1.808-1.563,3.91-2.615,5.774-4.395c0.475-0.331,0.945-0.663,1.416-0.995c2.353-1.663,4.661-3.36,6.934-5.077
		c2.729-2.061,5.403-4.149,8.02-6.238c7.413-5.035,14.285-11.182,21.465-17.091c0.553-0.455,1.104-0.908,1.662-1.36
		c3.567-1.921,6.51-4.582,9.653-7.084c0.526-0.416,1.056-0.829,1.596-1.236c2.059-0.137,3.108-3.291,5.212-3.291
		c-2.457,0-4.552-0.36-6.488-0.79C355.381,230.585,354.467,231.099,353.484,231.496z"/>
</g>
<polygon fill="#FFFFFF" stroke="#39B54A" stroke-width="5" stroke-linejoin="round" stroke-miterlimit="10" points="
	286.949,207.671 227.128,256.029 223.975,293.877 196.524,285.475 197.362,250.127 256.564,203.466 "/>
</svg>
