<?xml version="1.0" encoding="utf-8"?>
<!-- Generator: Adobe Illustrator 16.0.4, SVG Export Plug-In . SVG Version: 6.00 Build 0)  -->
<!DOCTYPE svg PUBLIC "-//W3C//DTD SVG 1.1//EN" "http://www.w3.org/Graphics/SVG/1.1/DTD/svg11.dtd">
<svg version="1.1" id="Layer_1" xmlns="http://www.w3.org/2000/svg" xmlns:xlink="http://www.w3.org/1999/xlink" x="0px" y="0px"
	 width="488px" height="488px" viewBox="0 0 488 488" enable-background="new 0 0 488 488" xml:space="preserve">
<path fill="none" stroke="#F16522" stroke-width="4" stroke-linejoin="round" stroke-miterlimit="10" d="M430,244
	c0-102.725-83.272-186-186-186C141.278,58,58,141.275,58,244c0,102.729,83.278,186,186,186C346.728,430,430,346.729,430,244z"/>
<path fill="#F16522" d="M430.567,243.766c0-39.653-11.567-76.378-33.567-106.573V270h-8v12.668l-72.992,17.933L310.396,292h-11.891
	l-33.11-34.088l11.434-8.113l-5.424-7.633l66.136-46.961l-43.3-60.98L131.212,249.992l6.184,8.71l-10.842,7.696l2.652,3.734
	l-4.977,3.534l18.558,26.134l4.977-3.533l2.652,3.729l10.84-7.695l13.254,18.667l59.562-42.293l5.424,7.642l14.285-10.146
	l33.44,34.563l-4.035,6.274l9.066,14.99h18.144l5.606-7.863L389,296.911V307h8v43.339C419,320.141,430.567,283.417,430.567,243.766z
	"/>
</svg>
