<?xml version="1.0" encoding="utf-8"?>
<!-- Generator: Adobe Illustrator 16.0.4, SVG Export Plug-In . SVG Version: 6.00 Build 0)  -->
<!DOCTYPE svg PUBLIC "-//W3C//DTD SVG 1.1//EN" "http://www.w3.org/Graphics/SVG/1.1/DTD/svg11.dtd">
<svg version="1.1" id="Layer_1" xmlns="http://www.w3.org/2000/svg" xmlns:xlink="http://www.w3.org/1999/xlink" x="0px" y="0px"
	 width="488px" height="488px" viewBox="0 0 488 488" enable-background="new 0 0 488 488" xml:space="preserve">
<path fill="none" stroke="#F16522" stroke-width="4" stroke-linejoin="round" stroke-miterlimit="10" d="M430,244
	c0-102.725-83.272-186-186-186C141.278,58,58,141.275,58,244c0,102.729,83.278,186,186,186C346.728,430,430,346.729,430,244z"/>
<path fill="#F16522" d="M425.033,287.83l-56.205-23.116l-15.252-25.686l-38.02-54.1l-16.08-20.471l-18.357-49.045l-9.422-6.516
	l-5.852,35.83l-16.822-30.096l-8.036-2.809l-1.462,26.319l-13.157,26.318l-35.093,13.162l-32.168,33.628l-61.413,35.094L86,260.96
	l7.309,8.776l15.105,10.429l11.214,15.891l24.889,9.451l11.667,4.43l77.495-13.881l24.856,58.484l4.133,75.46
	C341.227,419.904,405.047,362.837,425.033,287.83z"/>
</svg>
