<?xml version="1.0" encoding="utf-8"?>
<!-- Generator: Adobe Illustrator 16.0.4, SVG Export Plug-In . SVG Version: 6.00 Build 0)  -->
<!DOCTYPE svg PUBLIC "-//W3C//DTD SVG 1.1//EN" "http://www.w3.org/Graphics/SVG/1.1/DTD/svg11.dtd">
<svg version="1.1" id="Layer_1" xmlns="http://www.w3.org/2000/svg" xmlns:xlink="http://www.w3.org/1999/xlink" x="0px" y="0px"
	 width="488px" height="488px" viewBox="0 0 488 488" enable-background="new 0 0 488 488" xml:space="preserve">
<path fill="none" stroke="#F16522" stroke-width="4" stroke-linejoin="round" stroke-miterlimit="10" d="M430,244
	c0-102.725-83.272-186-186-186C141.278,58,58,141.275,58,244c0,102.729,83.278,186,186,186C346.728,430,430,346.729,430,244z"/>
<path fill="#F16522" d="M102.793,365.83c34.305,39.041,84.57,63.717,140.628,63.717c58.239,0,110.252-26.59,144.579-68.295
	l-37.149-24.385l-65.778-17.512v-25.599l9.424-17.906l3.371-19.137l6.739-4.043l8.75-15.49V211.98l-6.736-2.64l-0.672-8.309
	l-3.365-8.306l7.858-10.327l21.098-13.345l3.595-9.106v-6.512l-21.777-22.226l-16.839-22.677l-28.284-6.512L238.148,89
	l-31.436,17.286l-33,9.656l-8.087,17.736l-19.64,26.716l0.229,5.902l6.165,8.919l19.532,9.427l9.431,8.083l-2.692,12.128v7.126
	h-6.738v23.179l6.738,14.817l8.759,8.759l4.037,19.534l8.759,14.815l0.672,27.614l-64.886,16.168L102.793,365.83z"/>
</svg>
