<?xml version="1.0" encoding="utf-8"?>
<!-- Generator: Adobe Illustrator 16.0.4, SVG Export Plug-In . SVG Version: 6.00 Build 0)  -->
<!DOCTYPE svg PUBLIC "-//W3C//DTD SVG 1.1 Basic//EN" "http://www.w3.org/Graphics/SVG/1.1/DTD/svg11-basic.dtd">
<svg version="1.1" baseProfile="basic" id="Layer_1"
	 xmlns="http://www.w3.org/2000/svg" xmlns:xlink="http://www.w3.org/1999/xlink" x="0px" y="0px" width="488px" height="488px"
	 viewBox="0 0 488 488" xml:space="preserve">
<path fill="none" stroke="#999999" stroke-width="4" stroke-linejoin="round" stroke-miterlimit="10" d="M430,244
	c0-102.725-83.272-186-186-186C141.278,58,58,141.275,58,244c0,102.729,83.278,186,186,186C346.728,430,430,346.729,430,244z"/>
<g>
	<g>
		<path fill="#999999" stroke="#FFFFFF" stroke-width="5" stroke-miterlimit="10" d="M347.5,168.612c0-0.349,1.17-0.674,1.133-0.975
			c-0.154-1.203-0.153-2.011-1.201-2.316l-154.581,15.496l2.883,171.631c0.741,0.677,1.948,0.799,3.357,0.462
			c-0.082,0.02-0.134,0.049-0.214,0.065c15.379-3.158,30.775-6.317,46.154-9.476c9.826-2.019,19.66-4.037,29.486-6.055
			c9.469-1.945,18.94-3.89,28.409-5.835c13.514-2.775,27.03-5.552,40.544-8.327c0.098-0.02,0.141-0.088,0.139-0.195
			c0,0.007,0.004,0.017,0.004,0.023c0.801-19.872,1.602-39.74,2.401-59.612l0.622-15.442l0.629-15.621
			c0.64-15.907,0.113-31.811,0.753-47.718l-0.519-16.115C347.5,168.605,347.5,168.608,347.5,168.612z M343.448,322.625
			c0.03,0.058,0.056,0.111,0.077,0.162C343.504,322.736,343.479,322.683,343.448,322.625z M343.567,322.891
			c0.015,0.044,0.023,0.081,0.03,0.118C343.591,322.972,343.582,322.935,343.567,322.891z"/>
		<g>
			<g>
				<polygon fill="#999999" points="215.693,199.228 337.471,185.401 332.788,311.413 216.71,334.436 				"/>
				<path fill="#FFFFFF" d="M336.429,186.525l-0.722,19.414l-0.365,9.832l-1.261,33.924l-0.603,16.227l-0.628,16.867l-0.98,26.4
					l-0.052,1.396l-24.959,4.95l-3.447,0.684l-26.832,5.322l-13.332,2.644l-18.171,3.604l-22.038,4.372l-5.337,1.059l-0.082-10.889
					l-0.137-18.126l-0.267-35.475l-0.218-28.947l-0.056-7.489l-0.06-7.988L216.7,200.12l15.838-1.798l13.669-1.552l20.963-2.38
					l12.113-1.375l21.835-2.479l9.893-1.123l23.474-2.666L336.429,186.525 M338.514,184.276c-8.36,0.949-17.749,2.015-27.729,3.148
					c-10.111,1.148-20.844,2.367-31.728,3.602c-11.038,1.253-22.234,2.524-33.076,3.756c-10.992,1.248-21.608,2.453-31.295,3.553
					c0.079,10.465,0.166,21.986,0.256,33.974c0.089,11.883,0.182,24.215,0.274,36.436c0.091,12.111,0.182,24.113,0.267,35.475
					c0.085,11.266,0.165,21.911,0.237,31.432c9.202-1.825,19.292-3.826,29.747-5.9c10.319-2.046,20.982-4.161,31.502-6.247
					c10.38-2.06,20.623-4.091,30.279-6.006c9.535-1.892,18.512-3.672,26.51-5.258c0.331-8.903,0.701-18.854,1.092-29.377
					c0.395-10.606,0.811-21.804,1.23-33.094c0.423-11.386,0.85-22.868,1.261-33.924C337.755,204.7,338.152,193.994,338.514,184.276
					L338.514,184.276z"/>
			</g>
		</g>
		<g>
			<polygon fill="#999999" stroke="#FFFFFF" stroke-width="5" stroke-miterlimit="10" points="195.88,352.447 147.43,308.235 
				142.317,157.68 193.143,180.816 			"/>
		</g>
		<g>
			<polygon fill="#999999" stroke="#FFFFFF" stroke-width="5" stroke-miterlimit="10" points="193.143,180.816 142.317,157.68 
				281.839,146.042 348.016,165.321 			"/>
		</g>
		<path fill="#FFFFFF" d="M325.365,247.925c-0.417-1.043-1.026-1.951-1.781-2.685c-0.549-0.533-1.178-0.969-1.865-1.299
			c0.017,0.008,0.035,0.013,0.052,0.021c-2.896-1.417-5.791-2.833-8.686-4.25c-0.301-0.147-0.614-0.273-0.938-0.376
			c-0.323-0.104-0.656-0.184-0.999-0.24s-0.694-0.088-1.054-0.095c-0.359-0.006-0.726,0.014-1.098,0.06
			c-1.155,0.145-2.257,0.538-3.26,1.124c-1.004,0.587-1.909,1.367-2.669,2.287s-1.374,1.978-1.798,3.12
			c-0.424,1.141-0.656,2.365-0.653,3.616c0.003,0.785,0.098,1.534,0.274,2.236s0.435,1.358,0.763,1.956
			c0.328,0.599,0.726,1.139,1.182,1.611s0.97,0.878,1.53,1.204l8.504,4.592l0.64,26.241l7.037-1.097l0.778-25.762
			c0.688-0.472,1.322-1.033,1.887-1.666c0.565-0.633,1.062-1.338,1.473-2.095c0.41-0.757,0.736-1.567,0.961-2.411
			c0.225-0.845,0.349-1.723,0.354-2.616C326.008,250.138,325.781,248.965,325.365,247.925z M320.86,243.597
			c-0.062-0.021-0.129-0.034-0.192-0.052c0.051,0.015,0.104,0.021,0.153,0.037C320.835,243.586,320.847,243.593,320.86,243.597z
			 M319.939,243.371c-0.102-0.019-0.205-0.032-0.308-0.046c0.058,0.008,0.118,0.006,0.176,0.015
			C319.853,243.347,319.895,243.363,319.939,243.371z M318.938,243.264c-0.101-0.004-0.201-0.011-0.303-0.011
			c0.034,0,0.069-0.006,0.104-0.006C318.807,243.248,318.871,243.261,318.938,243.264z"/>
		<path fill="#FFFFFF" d="M273.913,234.535c1.707,0.808,3.414,1.616,5.122,2.424c-0.843-0.399-1.719-0.74-2.622-1.018
			c-0.906-0.279-1.84-0.496-2.8-0.646c-0.96-0.151-1.946-0.235-2.953-0.25c-1.008-0.014-2.037,0.042-3.084,0.173l-5.027-2.423
			c1.037-0.128,2.058-0.182,3.057-0.167c0.998,0.016,1.976,0.101,2.929,0.251c0.951,0.15,1.878,0.366,2.776,0.644
			C272.208,233.801,273.076,234.139,273.913,234.535z"/>
		<path fill="#FFFFFF" d="M253.312,284.324c-1.605-0.995-3.212-1.989-4.817-2.983c-1.502-0.931-2.877-2.062-4.097-3.37
			c-1.224-1.312-2.29-2.802-3.171-4.443c-0.883-1.646-1.579-3.443-2.06-5.368c-0.481-1.929-0.745-3.983-0.762-6.139
			c-0.028-3.591,0.631-7.113,1.849-10.405c1.218-3.293,2.993-6.35,5.192-9.006c2.197-2.654,4.813-4.905,7.716-6.595
			c2.894-1.686,6.067-2.81,9.387-3.219l5.027,2.423c-3.349,0.419-6.552,1.562-9.475,3.271c-2.93,1.713-5.573,3.995-7.795,6.682
			c-2.224,2.69-4.02,5.784-5.255,9.116c-1.234,3.33-1.905,6.894-1.883,10.524c0.013,2.179,0.275,4.256,0.758,6.205
			c0.48,1.945,1.18,3.762,2.068,5.424c0.886,1.658,1.959,3.161,3.19,4.485C250.413,282.246,251.799,283.387,253.312,284.324z"/>
		<path fill="#FFFFFF" d="M267.522,238.465c2.917-0.365,5.682-0.068,8.181,0.778c2.489,0.842,4.715,2.228,6.57,4.046
			c1.849,1.81,3.329,4.05,4.338,6.611c1.005,2.552,1.542,5.425,1.507,8.515c-0.036,3.082-0.637,6.094-1.695,8.904
			c-1.057,2.809-2.57,5.421-4.433,7.706c-1.864,2.287-4.082,4.249-6.544,5.752c-2.468,1.508-5.188,2.556-8.05,3.008
			c-2.875,0.453-5.623,0.262-8.135-0.475c-2.522-0.741-4.807-2.033-6.733-3.776c-1.938-1.752-3.516-3.959-4.615-6.519
			c-1.104-2.569-1.725-5.491-1.744-8.66c-0.02-3.176,0.567-6.294,1.647-9.207c1.08-2.915,2.651-5.622,4.597-7.976
			c1.944-2.351,4.257-4.347,6.82-5.846C261.79,239.831,264.593,238.832,267.522,238.465z"/>
		<path fill="#A8A8A8" d="M265.658,253.065l-0.353-0.187c0.188-0.025,0.372-0.041,0.556-0.049c0.183-0.007,0.363-0.005,0.542,0.005
			c0.178,0.011,0.353,0.03,0.525,0.058c0.172,0.027,0.341,0.062,0.507,0.106l0.354,0.187c-0.166-0.044-0.335-0.08-0.508-0.107
			c-0.172-0.027-0.348-0.046-0.525-0.057c-0.179-0.011-0.359-0.012-0.542-0.005C266.031,253.023,265.846,253.04,265.658,253.065"/>
		<path fill="#A3A3A3" d="M267.79,253.186l-0.354-0.187c0.085,0.022,0.169,0.047,0.252,0.073s0.165,0.055,0.246,0.086
			c0.081,0.03,0.161,0.062,0.24,0.097c0.079,0.035,0.157,0.071,0.234,0.109l0.354,0.187c-0.077-0.038-0.155-0.075-0.234-0.109
			s-0.159-0.066-0.24-0.098c-0.081-0.03-0.163-0.059-0.246-0.085S267.875,253.208,267.79,253.186"/>
		<path fill="#9E9E9E" d="M268.763,253.551l-0.354-0.187c0.008,0.004,0.016,0.009,0.024,0.013c0.008,0.004,0.017,0.008,0.024,0.013
			c0.009,0.004,0.017,0.008,0.024,0.013c0.009,0.004,0.017,0.008,0.024,0.013l0.355,0.187c-0.009-0.005-0.017-0.009-0.024-0.014
			c-0.009-0.004-0.017-0.008-0.025-0.012c-0.008-0.005-0.016-0.009-0.024-0.013C268.779,253.559,268.771,253.555,268.763,253.551"/>
		<path fill="none" d="M268.506,253.415c0.035,0.016,0.294,0.151,0.355,0.187c-0.233-0.123-0.477-0.228-0.729-0.312
			c-0.252-0.086-0.513-0.152-0.781-0.199c-0.269-0.046-0.545-0.072-0.828-0.077c-0.282-0.005-0.571,0.013-0.865,0.053l-0.353-0.187
			c0.293-0.04,0.582-0.057,0.864-0.053c0.283,0.005,0.559,0.031,0.827,0.078c0.269,0.046,0.53,0.112,0.782,0.198
			S268.273,253.293,268.506,253.415z"/>
		<path fill="#858585" d="M262.272,265.748l-0.35-0.197c-0.42-0.236-0.804-0.531-1.145-0.877s-0.639-0.743-0.883-1.183
			c-0.245-0.44-0.438-0.924-0.569-1.442c-0.131-0.519-0.201-1.072-0.201-1.653c-0.001-0.226,0.01-0.451,0.029-0.675
			c0.021-0.224,0.051-0.445,0.09-0.665c0.04-0.219,0.09-0.437,0.148-0.65c0.058-0.214,0.125-0.426,0.201-0.634l0.35,0.191
			c-0.076,0.208-0.145,0.419-0.203,0.634c-0.058,0.214-0.107,0.432-0.147,0.651s-0.07,0.441-0.09,0.665
			c-0.021,0.224-0.03,0.449-0.03,0.676c0,0.581,0.07,1.136,0.202,1.654c0.131,0.519,0.323,1.003,0.568,1.443
			s0.542,0.837,0.884,1.184C261.468,265.216,261.853,265.512,262.272,265.748"/>
		<path fill="#8A8A8A" d="M259.943,257.963l-0.35-0.191c0.033-0.089,0.067-0.178,0.104-0.267c0.036-0.088,0.073-0.176,0.112-0.263
			c0.039-0.086,0.08-0.172,0.122-0.258c0.042-0.085,0.085-0.169,0.13-0.253l0.35,0.19c-0.045,0.083-0.089,0.168-0.131,0.253
			s-0.083,0.172-0.122,0.258c-0.038,0.087-0.076,0.175-0.112,0.263C260.01,257.784,259.976,257.873,259.943,257.963"/>
		<path fill="#8F8F8F" d="M260.411,256.922l-0.35-0.19c0.038-0.07,0.077-0.141,0.117-0.21s0.081-0.139,0.123-0.207
			c0.042-0.067,0.085-0.135,0.129-0.202c0.044-0.066,0.089-0.133,0.135-0.198l0.35,0.189c-0.046,0.065-0.091,0.132-0.135,0.198
			c-0.044,0.067-0.087,0.135-0.129,0.203c-0.042,0.067-0.083,0.137-0.123,0.206S260.449,256.851,260.411,256.922"/>
		<path fill="#949494" d="M260.915,256.104l-0.35-0.189c0.044-0.062,0.088-0.122,0.133-0.183c0.045-0.06,0.091-0.119,0.137-0.179
			c0.047-0.059,0.094-0.117,0.142-0.174c0.049-0.058,0.098-0.114,0.146-0.17l0.351,0.188c-0.05,0.056-0.099,0.112-0.146,0.17
			s-0.096,0.115-0.142,0.175c-0.047,0.059-0.093,0.118-0.138,0.179S260.959,256.042,260.915,256.104"/>
		<path fill="#999999" d="M261.474,255.397l-0.351-0.188c0.05-0.057,0.101-0.112,0.152-0.167c0.051-0.055,0.103-0.108,0.155-0.161
			s0.106-0.105,0.16-0.156c0.054-0.052,0.109-0.103,0.164-0.152l0.351,0.188c-0.056,0.05-0.11,0.101-0.164,0.151
			c-0.054,0.052-0.107,0.104-0.16,0.157c-0.053,0.053-0.104,0.106-0.156,0.161C261.574,255.285,261.523,255.341,261.474,255.397"/>
		<path fill="#9E9E9E" d="M262.105,254.761l-0.351-0.188c0.06-0.053,0.12-0.105,0.181-0.156s0.123-0.102,0.185-0.15
			c0.062-0.049,0.126-0.097,0.189-0.145c0.063-0.047,0.128-0.092,0.193-0.137l0.351,0.188c-0.064,0.045-0.129,0.091-0.193,0.138
			c-0.063,0.047-0.127,0.095-0.188,0.144c-0.062,0.05-0.124,0.1-0.186,0.15C262.226,254.655,262.165,254.707,262.105,254.761"/>
		<path fill="#A3A3A3" d="M262.854,254.172l-0.351-0.188c0.08-0.055,0.16-0.108,0.242-0.16c0.082-0.051,0.164-0.101,0.248-0.148
			c0.083-0.048,0.168-0.094,0.253-0.138c0.086-0.045,0.172-0.087,0.259-0.127l0.352,0.187c-0.087,0.041-0.173,0.083-0.259,0.127
			c-0.085,0.045-0.17,0.091-0.253,0.139c-0.084,0.048-0.167,0.098-0.248,0.148C263.015,254.063,262.934,254.117,262.854,254.172"/>
		<path fill="#A8A8A8" d="M263.856,253.598l-0.352-0.187c0.143-0.066,0.287-0.128,0.434-0.184c0.147-0.056,0.296-0.106,0.446-0.15
			c0.15-0.045,0.302-0.084,0.456-0.117c0.153-0.033,0.309-0.06,0.465-0.081l0.353,0.187c-0.156,0.021-0.312,0.048-0.465,0.081
			c-0.154,0.033-0.306,0.072-0.457,0.117c-0.15,0.045-0.299,0.095-0.445,0.15C264.144,253.471,263.999,253.531,263.856,253.598"/>
		<path fill="none" d="M262.272,265.748c-0.116-0.065-0.233-0.132-0.35-0.197c-0.42-0.236-0.804-0.531-1.145-0.877
			s-0.639-0.743-0.883-1.183c-0.245-0.44-0.438-0.924-0.569-1.442c-0.131-0.519-0.201-1.072-0.201-1.653
			c-0.002-0.919,0.17-1.82,0.483-2.663c0.313-0.842,0.768-1.624,1.328-2.305c0.561-0.682,1.228-1.262,1.968-1.7
			c0.739-0.438,1.551-0.734,2.401-0.849l0.353,0.187c-0.851,0.114-1.662,0.411-2.402,0.85s-1.408,1.02-1.97,1.701
			c-0.561,0.682-1.016,1.465-1.329,2.308s-0.486,1.744-0.484,2.665c0,0.581,0.07,1.135,0.202,1.654
			c0.131,0.519,0.323,1.002,0.568,1.443c0.245,0.44,0.542,0.837,0.884,1.184C261.468,265.216,261.853,265.512,262.272,265.748z"/>
		<path fill="#999999" d="M269.624,250.338l-3.2-1.653c0.323-0.043,0.643-0.069,0.957-0.081c0.315-0.012,0.626-0.007,0.933,0.012
			c0.306,0.02,0.607,0.053,0.903,0.102c0.296,0.048,0.586,0.11,0.871,0.186l3.219,1.65c-0.285-0.076-0.578-0.139-0.875-0.187
			c-0.298-0.048-0.601-0.082-0.908-0.101s-0.62-0.022-0.937-0.011C270.27,250.267,269.948,250.294,269.624,250.338"/>
		<path fill="#999999" d="M273.307,250.553l-3.219-1.65c0.146,0.039,0.289,0.082,0.432,0.128s0.283,0.096,0.422,0.148
			c0.14,0.053,0.276,0.109,0.412,0.169s0.27,0.122,0.401,0.188l3.228,1.653c-0.132-0.067-0.267-0.13-0.402-0.19
			c-0.137-0.06-0.274-0.116-0.414-0.169c-0.14-0.054-0.281-0.104-0.425-0.149C273.599,250.635,273.453,250.592,273.307,250.553"/>
		<polyline fill="#999999" points="274.982,251.189 271.755,249.536 271.77,249.544 271.784,249.551 271.799,249.559 
			271.813,249.566 275.042,251.219 275.027,251.212 275.013,251.204 274.997,251.196 274.982,251.189 		"/>
		<path fill="#999999" d="M271.813,249.566c1.076,0.551,2.152,1.102,3.229,1.652c-0.395-0.201-0.806-0.374-1.232-0.516
			s-0.868-0.251-1.322-0.328c-0.455-0.076-0.922-0.119-1.399-0.126c-0.479-0.007-0.967,0.021-1.464,0.089l-3.2-1.653
			c0.494-0.065,0.98-0.094,1.456-0.086s0.939,0.051,1.392,0.127s0.892,0.186,1.316,0.327
			C271.012,249.193,271.421,249.365,271.813,249.566z"/>
		<path fill="#999999" d="M269.619,252.454l0.005-2.116c1.474-0.198,2.874-0.062,4.144,0.352c1.267,0.412,2.404,1.103,3.355,2.014
			c0.949,0.91,1.715,2.041,2.239,3.34c0.523,1.296,0.808,2.76,0.798,4.337c-0.01,1.574-0.312,3.114-0.852,4.552
			c-0.539,1.437-1.314,2.773-2.27,3.939c-0.956,1.168-2.093,2.166-3.355,2.928c-1.264,0.762-2.654,1.286-4.116,1.503
			s-2.856,0.104-4.128-0.284c-1.273-0.391-2.423-1.059-3.391-1.953c-0.969-0.896-1.755-2.02-2.3-3.316
			c-0.546-1.299-0.849-2.771-0.852-4.365c-0.002-1.597,0.297-3.162,0.841-4.624s1.332-2.82,2.306-4.003
			c0.973-1.183,2.131-2.188,3.415-2.948c1.282-0.76,2.69-1.272,4.165-1.47L269.619,252.454c-1.203,0.162-2.352,0.582-3.398,1.202
			c-1.047,0.621-1.992,1.443-2.786,2.409c-0.794,0.965-1.437,2.073-1.881,3.267s-0.689,2.47-0.688,3.773
			c0.001,1.3,0.247,2.502,0.691,3.562s1.085,1.979,1.876,2.712c0.789,0.732,1.728,1.28,2.768,1.601
			c1.038,0.32,2.178,0.413,3.373,0.237c1.194-0.176,2.332-0.604,3.366-1.226s1.965-1.439,2.747-2.395
			c0.782-0.954,1.417-2.048,1.857-3.224c0.441-1.177,0.688-2.436,0.695-3.723c0.007-1.29-0.227-2.486-0.656-3.546
			c-0.43-1.062-1.057-1.985-1.834-2.728c-0.779-0.744-1.71-1.307-2.746-1.642C271.966,252.399,270.822,252.291,269.619,252.454"/>
		<path fill="#999999" d="M269.619,252.454l0.005-2.116c1.474-0.198,2.874-0.062,4.144,0.352c1.267,0.412,2.404,1.103,3.355,2.014
			c0.949,0.91,1.715,2.041,2.239,3.34c0.523,1.296,0.808,2.76,0.798,4.337c-0.01,1.574-0.312,3.114-0.852,4.552
			c-0.539,1.437-1.314,2.773-2.27,3.939c-0.956,1.168-2.093,2.166-3.355,2.928c-1.264,0.762-2.654,1.286-4.116,1.503
			s-2.856,0.104-4.128-0.284c-1.273-0.391-2.423-1.059-3.391-1.953c-0.969-0.896-1.755-2.02-2.3-3.316
			c-0.546-1.299-0.849-2.771-0.852-4.365c-0.002-1.597,0.297-3.162,0.841-4.624s1.332-2.82,2.306-4.003
			c0.973-1.183,2.131-2.188,3.415-2.948c1.282-0.76,2.69-1.272,4.165-1.47L269.619,252.454c-1.203,0.162-2.352,0.582-3.398,1.202
			c-1.047,0.621-1.992,1.443-2.786,2.409c-0.794,0.965-1.437,2.073-1.881,3.267s-0.689,2.47-0.688,3.773
			c0.001,1.3,0.247,2.502,0.691,3.562s1.085,1.979,1.876,2.712c0.789,0.732,1.728,1.28,2.768,1.601
			c1.038,0.32,2.178,0.413,3.373,0.237c1.194-0.176,2.332-0.604,3.366-1.226s1.965-1.439,2.747-2.395
			c0.782-0.954,1.417-2.048,1.857-3.224c0.441-1.177,0.688-2.436,0.695-3.723c0.007-1.29-0.227-2.486-0.656-3.546
			c-0.43-1.062-1.057-1.985-1.834-2.728c-0.779-0.744-1.71-1.307-2.746-1.642C271.966,252.399,270.822,252.291,269.619,252.454z"/>
		<path fill="#999999" stroke="#FFFFFF" stroke-miterlimit="10" d="M263.633,272.232l-3.142-1.812
			c-0.707-0.408-1.354-0.913-1.928-1.504c-0.574-0.592-1.075-1.269-1.487-2.019c-0.413-0.75-0.737-1.573-0.96-2.455
			c-0.223-0.884-0.342-1.826-0.345-2.815c-0.001-0.391,0.017-0.779,0.051-1.165c0.035-0.386,0.087-0.769,0.155-1.146
			c0.068-0.379,0.153-0.754,0.254-1.123c0.101-0.37,0.217-0.734,0.348-1.092l3.136,1.723c-0.133,0.361-0.25,0.729-0.352,1.101
			s-0.188,0.75-0.257,1.131c-0.069,0.382-0.121,0.768-0.156,1.155c-0.035,0.389-0.054,0.78-0.053,1.173
			c0.002,0.996,0.121,1.946,0.344,2.835c0.222,0.889,0.548,1.717,0.962,2.472c0.414,0.754,0.916,1.436,1.493,2.03
			C262.272,271.314,262.923,271.822,263.633,272.232"/>
		<path fill="#999999" stroke="#FFFFFF" stroke-miterlimit="10" d="M259.715,258.823l-3.136-1.723
			c0.057-0.155,0.115-0.308,0.178-0.46c0.062-0.152,0.126-0.303,0.193-0.452s0.137-0.298,0.21-0.444
			c0.072-0.147,0.146-0.292,0.225-0.437l3.142,1.71c-0.078,0.146-0.153,0.292-0.227,0.439c-0.072,0.147-0.144,0.297-0.211,0.447
			c-0.067,0.151-0.133,0.303-0.195,0.456S259.771,258.668,259.715,258.823"/>
		<path fill="#999999" stroke="#FFFFFF" stroke-miterlimit="10" d="M260.526,257.018l-3.142-1.71
			c0.065-0.121,0.132-0.242,0.201-0.361c0.069-0.12,0.14-0.238,0.212-0.355s0.146-0.233,0.223-0.349
			c0.075-0.114,0.153-0.229,0.231-0.341l3.148,1.699c-0.079,0.113-0.157,0.228-0.233,0.344c-0.076,0.115-0.15,0.232-0.224,0.351
			s-0.145,0.237-0.214,0.358C260.66,256.773,260.593,256.896,260.526,257.018"/>
		<path fill="#999999" stroke="#FFFFFF" stroke-miterlimit="10" d="M261.4,255.601l-3.148-1.699c0.075-0.105,0.15-0.21,0.229-0.314
			c0.077-0.104,0.155-0.206,0.235-0.307c0.08-0.102,0.161-0.201,0.244-0.301c0.083-0.099,0.167-0.196,0.252-0.292l3.155,1.689
			c-0.086,0.097-0.17,0.195-0.254,0.295c-0.083,0.1-0.165,0.2-0.245,0.302c-0.081,0.103-0.16,0.206-0.238,0.311
			C261.553,255.389,261.476,255.494,261.4,255.601"/>
		<path fill="#999999" stroke="#FFFFFF" stroke-miterlimit="10" d="M262.367,254.377l-3.155-1.689
			c0.086-0.097,0.173-0.192,0.261-0.286c0.089-0.094,0.178-0.187,0.269-0.277s0.183-0.181,0.276-0.27
			c0.093-0.088,0.188-0.175,0.283-0.261l3.162,1.681c-0.096,0.086-0.191,0.174-0.285,0.263s-0.186,0.18-0.277,0.271
			c-0.091,0.092-0.182,0.186-0.271,0.28S262.454,254.279,262.367,254.377"/>
		<path fill="#999999" stroke="#FFFFFF" stroke-miterlimit="10" d="M263.463,253.274l-3.162-1.681
			c0.102-0.091,0.205-0.181,0.311-0.269c0.105-0.089,0.211-0.175,0.318-0.259c0.107-0.085,0.217-0.167,0.326-0.248
			c0.11-0.081,0.221-0.159,0.333-0.236l3.171,1.672c-0.112,0.077-0.225,0.157-0.335,0.238s-0.22,0.165-0.328,0.25
			s-0.215,0.172-0.32,0.261C263.67,253.092,263.566,253.183,263.463,253.274"/>
		<path fill="#999999" stroke="#FFFFFF" stroke-miterlimit="10" d="M264.76,252.254l-3.171-1.672
			c0.138-0.095,0.277-0.186,0.419-0.274c0.141-0.089,0.283-0.174,0.428-0.256c0.145-0.083,0.29-0.162,0.438-0.238
			c0.146-0.075,0.296-0.148,0.445-0.218l3.182,1.663c-0.15,0.069-0.3,0.144-0.448,0.22c-0.148,0.077-0.295,0.157-0.44,0.24
			c-0.145,0.083-0.288,0.169-0.431,0.258C265.039,252.066,264.898,252.158,264.76,252.254"/>
		<path fill="#999999" stroke="#FFFFFF" stroke-miterlimit="10" d="M266.5,251.259l-3.182-1.663
			c0.246-0.114,0.496-0.219,0.749-0.314s0.51-0.182,0.769-0.258c0.26-0.077,0.521-0.144,0.786-0.2s0.532-0.103,0.802-0.139
			l3.2,1.653c-0.271,0.036-0.54,0.083-0.807,0.14c-0.266,0.058-0.53,0.125-0.79,0.202c-0.262,0.078-0.52,0.165-0.773,0.262
			C266.999,251.038,266.748,251.144,266.5,251.259"/>
		<g>
			<path fill="#999999" d="M260.241,270.853c-0.747-0.431-1.433-0.966-2.036-1.588c-0.61-0.629-1.138-1.344-1.567-2.126
				c-0.437-0.794-0.775-1.66-1.006-2.574c-0.236-0.936-0.357-1.924-0.36-2.936c-0.004-1.612,0.286-3.216,0.862-4.767
				c0.556-1.496,1.354-2.882,2.371-4.117c1.019-1.235,2.204-2.257,3.524-3.036c1.371-0.81,2.828-1.321,4.329-1.521l0.155-0.021
				l4.751,2.455l-1.574,0.21c-1.377,0.185-2.715,0.657-3.977,1.404c-1.229,0.729-2.335,1.682-3.284,2.836
				c-0.952,1.158-1.7,2.456-2.223,3.86c-0.539,1.448-0.812,2.945-0.81,4.448c0.002,0.938,0.112,1.852,0.329,2.715
				c0.207,0.832,0.516,1.624,0.915,2.353c0.391,0.712,0.866,1.358,1.413,1.922c0.544,0.562,1.158,1.041,1.828,1.429l-0.5,0.865
				L260.241,270.853z"/>
			<path fill="#FFFFFF" d="M266.424,248.685l3.2,1.653c-1.475,0.197-2.883,0.71-4.165,1.47c-1.284,0.76-2.442,1.766-3.415,2.948
				c-0.974,1.183-1.762,2.541-2.306,4.003s-0.843,3.027-0.841,4.624c0.002,0.996,0.121,1.946,0.344,2.835
				c0.222,0.889,0.548,1.717,0.962,2.472c0.414,0.754,0.916,1.436,1.493,2.03c0.576,0.595,1.227,1.103,1.937,1.513
				c-1.047-0.604-2.095-1.208-3.142-1.812c-0.707-0.408-1.354-0.913-1.928-1.504c-0.574-0.592-1.075-1.269-1.487-2.019
				c-0.413-0.75-0.737-1.573-0.96-2.455c-0.223-0.884-0.342-1.826-0.345-2.815c-0.004-1.586,0.292-3.14,0.831-4.591
				s1.321-2.799,2.288-3.973c0.967-1.173,2.117-2.171,3.393-2.924S264.958,248.879,266.424,248.685 M266.604,247.652l-0.312,0.041
				c-1.567,0.208-3.088,0.741-4.518,1.585c-1.37,0.81-2.6,1.868-3.655,3.149c-1.054,1.278-1.879,2.712-2.454,4.26
				c-0.597,1.607-0.897,3.271-0.894,4.942c0.003,1.053,0.129,2.081,0.375,3.057c0.241,0.956,0.596,1.862,1.054,2.693
				c0.451,0.82,1.005,1.572,1.646,2.232c0.637,0.656,1.358,1.22,2.146,1.674l1.563,0.901l1.578,0.911l1-1.732
				c-0.63-0.363-1.208-0.815-1.719-1.343c-0.516-0.531-0.965-1.143-1.334-1.815c-0.379-0.69-0.672-1.441-0.868-2.232
				c-0.207-0.825-0.312-1.697-0.314-2.595c-0.002-1.443,0.26-2.881,0.778-4.273c0.503-1.352,1.223-2.602,2.141-3.716
				c0.912-1.109,1.973-2.025,3.151-2.724c1.204-0.713,2.479-1.164,3.789-1.339l3.149-0.421l-2.823-1.459l-3.2-1.653L266.604,247.652
				L266.604,247.652z"/>
		</g>
	</g>
</g>
</svg>
