<?xml version="1.0" encoding="utf-8"?>
<!-- Generator: Adobe Illustrator 16.0.4, SVG Export Plug-In . SVG Version: 6.00 Build 0)  -->
<!DOCTYPE svg PUBLIC "-//W3C//DTD SVG 1.1//EN" "http://www.w3.org/Graphics/SVG/1.1/DTD/svg11.dtd">
<svg version="1.1" id="Layer_1" xmlns="http://www.w3.org/2000/svg" xmlns:xlink="http://www.w3.org/1999/xlink" x="0px" y="0px"
	 width="488px" height="488px" viewBox="0 0 488 488" enable-background="new 0 0 488 488" xml:space="preserve">
<polygon opacity="0.5" fill="#231F20" points="193.466,234 173.466,254 176.712,254 196.712,234 "/>
<polygon opacity="0.5" fill="#231F20" points="147.571,234 127.571,254 130.817,254 150.817,234 "/>
<polygon opacity="0.5" fill="#231F20" points="170.519,234 150.519,254 153.765,254 173.765,234 "/>
<polygon opacity="0.5" fill="#231F20" points="124.622,234 104.622,254 107.868,254 127.868,234 "/>
<polygon opacity="0.5" fill="#231F20" points="33.382,236.696 36.078,234 32.832,234 32.556,234.276 32.556,234.276 17,249.832 
	17,253.077 33.382,236.695 "/>
<polygon opacity="0.5" fill="#231F20" points="254,402.944 234,422.944 234,426.19 254,406.19 "/>
<polygon opacity="0.5" fill="#231F20" points="254,357.05 234,377.05 234,380.296 254,360.296 "/>
<polygon opacity="0.5" fill="#231F20" points="254,311.16 234,331.16 234,334.406 254,314.406 "/>
<polygon opacity="0.5" fill="#231F20" points="254,265.259 234,285.259 234,288.505 254,268.505 "/>
<polygon opacity="0.5" fill="#231F20" points="239.362,234 219.362,254 222.608,254 242.608,234 "/>
<polygon opacity="0.5" fill="#231F20" points="254,379.998 234,399.998 234,403.244 254,383.244 "/>
<polygon opacity="0.5" fill="#231F20" points="254,334.101 234,354.101 234,357.347 254,337.347 "/>
<polygon opacity="0.5" fill="#231F20" points="254,288.206 234,308.206 234,311.452 254,291.452 "/>
<polygon opacity="0.5" fill="#231F20" points="254,242.31 234,262.311 234,265.557 254,245.557 "/>
<polygon opacity="0.5" fill="#231F20" points="216.421,234 196.421,254 199.667,254 219.667,234 "/>
<polygon opacity="0.5" fill="#231F20" points="254,452.087 254,448.841 250.561,452.28 234,468.841 234,471 235.087,471 
	251.387,454.7 "/>
<polygon opacity="0.5" fill="#231F20" points="101.682,234 81.682,254 84.928,254 104.928,234 "/>
<polygon opacity="0.5" fill="#231F20" points="45.653,247.373 59.026,234 55.78,234 44.03,245.75 43.233,246.547 35.78,254 
	39.026,254 44.856,248.17 "/>
<polygon opacity="0.5" fill="#231F20" points="78.727,234 58.727,254 61.973,254 81.973,234 "/>
<polygon opacity="0.5" fill="#231F20" points="240.713,442.433 254,429.146 254,425.899 239.09,440.81 238.293,441.606 234,445.899 
	234,449.146 239.916,443.229 "/>
</svg>
