<?xml version="1.0" encoding="utf-8"?>
<!-- Generator: Adobe Illustrator 16.0.4, SVG Export Plug-In . SVG Version: 6.00 Build 0)  -->
<!DOCTYPE svg PUBLIC "-//W3C//DTD SVG 1.1//EN" "http://www.w3.org/Graphics/SVG/1.1/DTD/svg11.dtd">
<svg version="1.1" id="Layer_1" xmlns="http://www.w3.org/2000/svg" xmlns:xlink="http://www.w3.org/1999/xlink" x="0px" y="0px"
	 width="488px" height="488px" viewBox="0 0 488 488" enable-background="new 0 0 488 488" xml:space="preserve">
<g opacity="0.5">
	<polygon fill="#231F20" points="238.636,138.918 237.84,139.715 237.84,139.715 254,123.555 254,120.309 237.014,137.295 	"/>
	<polygon fill="#231F20" points="254,74.41 234,94.41 234,97.656 254,77.656 	"/>
	<polygon fill="#231F20" points="254,28.513 234,48.513 234,51.759 254,31.759 	"/>
	<polygon fill="#231F20" points="250.108,150.39 254,146.498 254,143.252 248.485,148.767 	"/>
	<polygon fill="#231F20" points="254,97.356 234,117.356 234,120.603 254,100.603 	"/>
	<polygon fill="#231F20" points="254,51.461 234,71.461 234,74.707 254,54.707 	"/>
	<polygon fill="#231F20" points="242.569,17 234,25.569 234,28.815 245.815,17 	"/>
	<polygon fill="#231F20" points="250.771,471 254,467.771 254,464.525 247.525,471 	"/>
	<polygon fill="#231F20" points="238.637,368.396 254,353.033 254,349.787 237.014,366.773 	"/>
	<polygon fill="#231F20" points="254,303.889 234,323.889 234,327.135 254,307.135 	"/>
	<polygon fill="#231F20" points="254,257.991 234,277.991 234,281.237 254,261.237 	"/>
	<polygon fill="#231F20" points="250.108,379.868 254,375.977 254,372.73 248.485,378.245 	"/>
	<polygon fill="#231F20" points="254,326.835 234,346.835 234,350.081 254,330.081 	"/>
	<polygon fill="#231F20" points="254,280.939 234,300.939 234,304.186 254,284.186 	"/>
	<polygon fill="#231F20" points="254,235.047 234,255.047 234,258.293 254,238.293 	"/>
	<polygon fill="#231F20" points="234,464.82 254,444.82 254,441.574 234,461.574 	"/>
	<polygon fill="#231F20" points="254,395.68 234,415.68 234,418.926 254,398.926 	"/>
	<polygon fill="#231F20" points="236.217,367.57 234,369.787 234,373.033 237.84,369.193 	"/>
	
		<rect x="236.279" y="367.42" transform="matrix(-0.7071 -0.7071 0.7071 -0.7071 145.1093 796.073)" fill="#231F20" width="2.295" height="1.127"/>
	<polygon fill="#231F20" points="234,441.873 254,421.873 254,418.627 234,438.627 	"/>
	<polygon fill="#231F20" points="247.688,379.042 234,392.73 234,395.977 249.312,380.665 	"/>
	
		<rect x="247.751" y="378.892" transform="matrix(-0.7071 -0.7071 0.7071 -0.7071 156.581 823.7681)" fill="#231F20" width="2.295" height="1.127"/>
	<polygon fill="#231F20" points="254,212.096 234,232.096 234,235.342 254,215.342 	"/>
	<polygon fill="#231F20" points="254,166.201 234,186.201 234,189.447 254,169.447 	"/>
	<polygon fill="#231F20" points="236.217,138.092 237.014,137.295 237.013,137.295 234,140.308 234,143.554 237.84,139.715 	"/>
	
		<rect x="236.863" y="137.357" transform="matrix(0.7071 -0.7071 0.7071 0.7071 -28.397 208.4532)" fill="#231F20" width="1.127" height="2.295"/>
	<polygon fill="#231F20" points="254,189.149 234,209.149 234,212.395 254,192.395 	"/>
	<polygon fill="#231F20" points="247.688,149.563 234,163.252 234,166.498 249.312,151.187 	"/>
	
		<rect x="247.751" y="149.413" transform="matrix(-0.7071 -0.7071 0.7071 -0.7071 318.8468 432.0238)" fill="#231F20" width="2.295" height="1.127"/>
</g>
</svg>
