<?xml version="1.0" encoding="utf-8"?>
<!-- Generator: Adobe Illustrator 16.0.4, SVG Export Plug-In . SVG Version: 6.00 Build 0)  -->
<!DOCTYPE svg PUBLIC "-//W3C//DTD SVG 1.1 Basic//EN" "http://www.w3.org/Graphics/SVG/1.1/DTD/svg11-basic.dtd">
<svg version="1.1" baseProfile="basic" id="Layer_1"
	 xmlns="http://www.w3.org/2000/svg" xmlns:xlink="http://www.w3.org/1999/xlink" x="0px" y="0px" width="488px" height="488px"
	 viewBox="0 0 488 488" xml:space="preserve">
<path fill="none" stroke="#0071BC" stroke-width="4" stroke-linejoin="round" stroke-miterlimit="10" d="M430,244
	c0-102.725-83.272-186-186-186C141.278,58,58,141.275,58,244c0,102.729,83.278,186,186,186C346.728,430,430,346.729,430,244z"/>
<path fill="#0071BC" d="M338.822,183.271c0.515-3.307-0.506-6.361-1.951-8.86c1.647-4.777,0.584-10.065,0.584-7.361
	c0,4.575-15.25-3.05-15.25-3.05h7.625c0,0-18.301-6.101-15.25-9.15c3.05-3.05,13.725,0,13.725,0s-17.537-12.963-30.5,0
	c-10.724,10.724-12.052,32.912-12.192,40.262l-3.058-3.091l-1.286,7.562c-5.711-2.836-13.946-2.874-19.269,1.8l-80,78.141v25.396
	l-31.856,35.899L186.007,309h25.396l77.9-77.791l-0.4-0.371c5.721-6.961,5.631-13.838,2.517-20.838h8.674l-3.486-3.649
	c0.028-0.128,0.057-0.32,0.088-0.458c7.792-1.279,28.733-5.512,37.934-14.891c1.485-1.513,2.519-3.038,3.21-4.518
	c3.796-1.378,5.717-2.653,5.717-2.653S341.525,183.598,338.822,183.271z M210.881,299.723c0,0,25.296-28.299,33.55-39.649
	l-1.525,9.149C241.771,270.301,210.881,299.723,210.881,299.723z M281.778,229.688l-31.91,31.909l-1.373-6.108
	c-4.283-7.655-17.466-15.341-21.27-11.537l35.868-35.868C276.567,194.61,296.712,214.755,281.778,229.688z"/>
</svg>
