<?xml version="1.0" encoding="utf-8"?>
<!-- Generator: Adobe Illustrator 16.0.4, SVG Export Plug-In . SVG Version: 6.00 Build 0)  -->
<!DOCTYPE svg PUBLIC "-//W3C//DTD SVG 1.1 Basic//EN" "http://www.w3.org/Graphics/SVG/1.1/DTD/svg11-basic.dtd">
<svg version="1.1" baseProfile="basic" id="Layer_1"
	 xmlns="http://www.w3.org/2000/svg" xmlns:xlink="http://www.w3.org/1999/xlink" x="0px" y="0px" width="488px" height="488px"
	 viewBox="0 0 488 488" xml:space="preserve">
<path fill="none" stroke="#0071BC" stroke-width="4" stroke-linejoin="round" stroke-miterlimit="10" d="M430,244
	c0-102.725-83.272-186-186-186C141.278,58,58,141.275,58,244c0,102.729,83.278,186,186,186C346.728,430,430,346.729,430,244z"/>
<g>
	<path fill="#0071BC" d="M369.109,211.391c-23.157-23.388-89.317-30.734-117.622-7.346c-35.382,29.236-103.572-0.531-131.234,22.325
		c-9.857,8.145-8.805,16.587-8.805,26.486c0,26.647,18.729,49.146,164.484,49.146c94.489,0,102.672-32.65,102.672-57.952
		C378.604,220.622,375.257,217.6,369.109,211.391z"/>
	<path fill="#FFFFFF" d="M117.085,244.987c0,0,8.122,27.409,109.642,27.409c79.185,0,142.128-8.121,148.219-34.516
		c0,18.274-23.35,36.547-151.265,36.547C117.085,274.428,117.085,244.987,117.085,244.987z"/>
	<path fill="#FFFFFF" d="M276.471,209.455c3.046-2.03,27.411,2.031,36.547,5.076c9.138,3.045,35.024,8.629,30.457,13.198
		c-1.016,1.015-24.245-7.512-30.457-4.061c-27.409,15.228-68.018,23.349-76.139,21.32c-2.202-0.551,20.23-5.595,34.517-10.153
		c14.372-4.584,24.353-7.6,28.425-12.182C307.942,213.516,270.38,213.516,276.471,209.455z"/>
</g>
</svg>
