<?xml version="1.0" encoding="utf-8"?>
<!-- Generator: Adobe Illustrator 16.0.4, SVG Export Plug-In . SVG Version: 6.00 Build 0)  -->
<!DOCTYPE svg PUBLIC "-//W3C//DTD SVG 1.1 Basic//EN" "http://www.w3.org/Graphics/SVG/1.1/DTD/svg11-basic.dtd">
<svg version="1.1" baseProfile="basic" id="Layer_1"
	 xmlns="http://www.w3.org/2000/svg" xmlns:xlink="http://www.w3.org/1999/xlink" x="0px" y="0px" width="488px" height="488px"
	 viewBox="0 0 488 488" xml:space="preserve">
<g opacity="0.5">
	<g>
		<polygon fill="#231F20" points="254,431.688 234,451.688 234,454.934 254,434.934 		"/>
		<polygon fill="#231F20" points="237.635,471 240.881,471 254,457.881 254,454.635 		"/>
		<polygon fill="#231F20" points="254,408.742 234,428.742 234,431.988 254,411.988 		"/>
		<polygon fill="#231F20" points="244.851,306.399 254.803,296.447 252.582,295.422 243.228,304.776 		"/>
		<polygon fill="#231F20" points="256.322,317.871 258.289,315.904 261.071,309.876 254.699,316.248 		"/>
		<polygon fill="#231F20" points="254,385.791 234,405.791 234,409.037 254,389.037 		"/>
		<polygon fill="#231F20" points="254,339.896 234,359.896 234,363.143 254,343.143 		"/>
		<polygon fill="#231F20" points="242.431,305.573 239.828,308.176 237.046,314.204 244.054,307.196 		"/>
		
			<rect x="242.493" y="305.423" transform="matrix(-0.7071 -0.7071 0.7071 -0.7071 199.5556 694.6313)" fill="#231F20" width="2.295" height="1.127"/>
		<polygon fill="#231F20" points="254,362.844 234,382.844 234,386.09 254,366.09 		"/>
		<polygon fill="#231F20" points="253.902,317.045 234,336.947 234,340.193 255.525,318.668 		"/>
		
			<rect x="253.965" y="316.895" transform="matrix(-0.7071 -0.7071 0.7071 -0.7071 211.0272 722.3264)" fill="#231F20" width="2.295" height="1.127"/>
	</g>
	<g>
		<polygon fill="#231F20" points="244.851,85.919 254,76.77 254,73.523 243.228,84.296 		"/>
		<polygon fill="#231F20" points="254,27.625 234,47.625 234,50.871 254,30.871 		"/>
		<polygon fill="#231F20" points="254,50.571 234,70.571 234,73.817 254,53.817 		"/>
		<polygon fill="#231F20" points="241.676,17 234,24.676 234,27.922 244.922,17 		"/>
		<polygon fill="#231F20" points="241.813,177.497 242.778,179.778 258.039,164.518 257.074,162.237 		"/>
		<polygon fill="#231F20" points="254,119.416 234,139.416 234,142.662 254,122.662 		"/>
		<polygon fill="#231F20" points="242.431,85.093 234,93.523 234,96.77 244.054,86.716 		"/>
		
			<rect x="242.493" y="84.942" transform="matrix(-0.7071 -0.7071 0.7071 -0.7071 355.4588 318.2476)" fill="#231F20" width="2.295" height="1.127"/>
		<polygon fill="#231F20" points="254,142.364 234.992,161.372 235.957,163.653 254,145.61 		"/>
		<polygon fill="#231F20" points="254,96.662 253.902,96.564 234,116.467 234,119.713 254,99.713 		"/>
		<polygon fill="#231F20" points="254,96.662 254,96.467 253.902,96.564 		"/>
	</g>
</g>
</svg>
