# Alias OBJ Model File
# Exported from SketchUp, (c) 2000-2012 Trimble Navigation Limited
# File units = inches

mtllib player.mtl

g Mesh1 Heist_Player1 Model

usemtl FrontColor
v 0.243242 -2.75158e-16 -0.907793
vt -1.18306 1.84761
vn 0 -1 3.03107e-16
v 0 -4.93038e-32 1.11022e-16
vt -0.939816 0.939816
v 0 -2.84865e-16 -0.939816
vt -0.939816 1.87963
f 1/1/1 2/2/1 3/3/1

v 0.939816 -4.93038e-32 3.33067e-16
vt -1.87963 0.939816
f 2/2/1 1/1/1 4/4/1

v 0.469908 -2.467e-16 -0.813905
vt -1.40972 1.75372
f 4/4/1 1/1/1 5/5/1

v 0.243242 0.134001 -0.907793
vt -0.385954 0.134001
vn 0.382683 -2.80034e-16 -0.92388
vt -0.631295 6.42956e-16
vt -0.385954 6.14498e-16
f 6/6/2 5/7/2 1/8/2

v 0.469908 0.134001 -0.813905
vt -0.631295 0.134001
f 5/7/2 6/6/2 7/9/2

vt 1.18306 1.84761
vn 4.49256e-32 1 -3.37714e-16
v 0.93012 0.134001 -0.0736498
vt 1.86994 1.01347
vt 1.40972 1.75372
f 6/10/3 8/11/3 7/12/3

v 0 0.134001 -0.939816
vt 0.939816 1.87963
f 9/13/3 8/11/3 6/10/3

v -0.243242 0.134001 -0.907793
vt 0.696574 1.84761
f 10/14/3 8/11/3 9/13/3

v -0.469908 0.134001 -0.813905
vt 0.469908 1.75372
f 11/15/3 8/11/3 10/14/3

v -0.66455 0.134001 -0.66455
vt 0.275266 1.60437
f 12/16/3 8/11/3 11/15/3

v -0.813905 0.134001 -0.469908
vt 0.125911 1.40972
f 13/17/3 8/11/3 12/16/3

v -0.907793 0.134001 -0.243242
vt 0.0320235 1.18306
f 14/18/3 8/11/3 13/17/3

v -0.93012 0.134001 -0.0736498
vt 0.00969618 1.01347
f 8/11/3 14/18/3 15/19/3

vt -1.17712 0.134001
vn -0.991445 -2.61735e-17 -0.130526
v -0.93012 -2.23238e-17 -0.0736498
vt -1.00606 2.65752e-16
vt -1.00606 0.134001
f 14/20/4 16/21/4 15/22/4

v -0.907793 -7.37284e-17 -0.243242
vt -1.17712 2.14347e-16
f 16/21/4 14/20/4 17/23/4

vt -1.3506 0.134001
vn -0.92388 -1.15994e-16 -0.382683
vt -1.10526 2.60219e-16
vt -1.10526 0.134001
f 13/24/5 17/25/5 14/26/5

v -0.813905 -1.42432e-16 -0.469908
vt -1.3506 1.91515e-16
f 17/25/5 13/24/5 18/27/5

vt -1.4404 0.134001
vn -0.793353 -1.8452e-16 -0.608761
vt -1.19506 2.82352e-16
vt -1.19506 0.134001
f 12/28/6 18/29/6 13/30/6

v -0.66455 -2.0143e-16 -0.66455
vt -1.4404 2.23355e-16
f 18/29/6 12/28/6 19/31/6

vn -0.608761 -2.40471e-16 -0.793353
vt -1.19506 3.49217e-16
f 11/28/7 19/32/7 12/30/7

v -0.469908 -2.467e-16 -0.813905
vt -1.4404 3.03947e-16
f 19/32/7 11/28/7 20/33/7

vn -0.382683 -2.80034e-16 -0.92388
vt -1.10526 4.41526e-16
f 10/24/8 20/34/8 11/26/8

v -0.243242 -2.75158e-16 -0.907793
vt -1.3506 4.13068e-16
f 20/34/8 10/24/8 21/35/8

vn -0.130526 -3.00514e-16 -0.991445
vt -0.931776 5.32865e-16
vt -0.931776 0.134001
f 9/20/9 21/36/9 10/37/9

vt -1.17712 5.23158e-16
f 21/36/9 9/20/9 3/38/9

vt -0.686435 0.134001
vn 0.130526 -3.00514e-16 -0.991445
vt -0.931776 6.06593e-16
vt -0.686435 5.96887e-16
f 9/39/10 1/40/10 3/41/10

f 1/40/10 9/39/10 6/37/10

vn -3.01491e-32 -1 3.03107e-16
vt -0.696574 1.84761
f 2/2/11 21/42/11 3/3/11

vt -0.469908 1.75372
f 2/2/11 20/43/11 21/42/11

vt -0.275266 1.60437
f 2/2/11 19/44/11 20/43/11

vt -0.125911 1.40972
f 2/2/11 18/45/11 19/44/11

vt -0.0320235 1.18306
f 2/2/11 17/46/11 18/45/11

vt -0.00969618 1.01347
f 2/2/11 16/47/11 17/46/11

v -0.939816 -4.93038e-32 1.11022e-16
vt 8.5884e-48 0.939816
f 16/47/11 2/2/11 22/48/11

vn 1.50745e-31 -1 3.03107e-16
v -0.93012 2.23238e-17 0.0736498
vt -0.00969618 0.866166
vt -4.2942e-47 0.939816
f 2/2/12 23/49/12 22/50/12

v -0.907793 7.37284e-17 0.243242
vt -0.0320235 0.696574
f 23/49/12 2/2/12 24/51/12

v -0.813905 1.42432e-16 0.469908
vt -0.125911 0.469908
f 24/51/12 2/2/12 25/52/12

v -0.66455 2.0143e-16 0.66455
vt -0.275266 0.275266
f 25/52/12 2/2/12 26/53/12

v -0.469908 2.467e-16 0.813905
vt -0.469908 0.125911
f 26/53/12 2/2/12 27/54/12

v -0.243242 2.75158e-16 0.907793
vt -0.696574 0.0320235
f 27/54/12 2/2/12 28/55/12

v -1.11022e-16 2.84865e-16 0.939816
vt -0.939816 -1.72689e-31
f 28/55/12 2/2/12 29/56/12

v 0.243242 2.75158e-16 0.907793
vt -1.18306 0.0320235
f 2/2/1 30/57/1 29/56/1

f 30/57/1 2/2/1 4/4/1

v 0.469908 2.467e-16 0.813905
vt -1.40972 0.125911
f 30/57/1 4/4/1 31/58/1

v 0.66455 2.0143e-16 0.66455
vt -1.60437 0.275266
f 31/58/1 4/4/1 32/59/1

v 0.813905 1.42432e-16 0.469908
vt -1.75372 0.469908
f 32/59/1 4/4/1 33/60/1

v 0.93012 2.23238e-17 0.0736498
vt -1.86994 0.866166
f 33/60/1 4/4/1 34/61/1

vt 1.17712 2.84418e-16
vn 0.991445 2.56655e-19 0.130526
v 0.93012 0.134001 0.0736498
vt 1.10283 0.134001
vt 1.10283 3.06742e-16
f 4/62/13 35/63/13 34/64/13

v 0.93012 0.358505 0.0736498
vt 1.10283 0.358505
f 35/63/13 4/62/13 36/65/13

v 0.939816 0.346534 3.33067e-16
vt 1.17712 0.346534
f 36/65/13 4/62/13 37/66/13

v 0.93012 -2.23238e-17 -0.0736498
vt 0.76072 3.34836e-16
vn 0.991445 -3.63981e-17 -0.130526
vt 0.686435 0.346534
vt 0.686435 3.57159e-16
f 38/67/14 37/68/14 4/69/14

v 0.93012 0.358505 -0.0736498
vt 0.76072 0.358505
f 37/68/14 38/67/14 39/70/14

vt 0.76072 0.134001
f 39/70/14 38/67/14 8/71/14

v 0.907793 -7.37284e-17 -0.243242
vt 0.931776 2.63123e-16
vn 0.991445 -2.61735e-17 -0.130526
vt 0.76072 3.14527e-16
f 40/72/15 8/71/15 38/73/15

v 0.907793 0.134001 -0.243242
vt 0.931776 0.134001
f 8/71/15 40/72/15 41/74/15

v 0.813905 -1.42432e-16 -0.469908
vt 0.631295 3.92945e-16
vn 0.92388 -1.15994e-16 -0.382683
vt 0.385954 0.134001
vt 0.385954 4.61649e-16
f 42/75/16 41/76/16 40/77/16

v 0.813905 0.134001 -0.469908
vt 0.631295 0.134001
f 41/76/16 42/75/16 43/78/16

v 0.66455 -2.0143e-16 -0.66455
vt 0.296153 4.98513e-16
vn 0.793353 -1.8452e-16 -0.608761
vt 0.0508118 0.134001
vt 0.0508118 5.5751e-16
f 44/79/17 43/80/17 42/81/17

v 0.66455 0.134001 -0.66455
vt 0.296153 0.134001
f 43/80/17 44/79/17 45/82/17

vt -0.296153 6.24375e-16
vn 0.608761 -2.40471e-16 -0.793353
vt -0.0508118 0.134001
vt -0.296153 0.134001
f 44/83/18 7/84/18 45/85/18

vt -0.0508118 5.79105e-16
f 7/84/18 44/83/18 5/86/18

vt -1.60437 1.60437
f 4/4/1 5/5/1 44/87/1

vt -1.75372 1.40972
f 4/4/1 44/87/1 42/88/1

vt -1.86994 1.01347
f 4/4/1 42/88/1 38/89/1

vt -1.84761 1.18306
f 38/89/1 42/88/1 40/90/1

vt 1.60437 1.60437
f 7/12/3 8/11/3 45/91/3

vt 1.75372 1.40972
f 45/91/3 8/11/3 43/92/3

vt 1.84761 1.18306
f 43/92/3 8/11/3 41/93/3

vt -1.86994 0.134001
vn -9.89364e-18 -5.58982e-17 -1
v -0.93012 0.358505 -0.0736498
vt -0.00969618 0.358505
vt -1.86994 0.358505
f 8/94/19 46/95/19 39/96/19

vt -0.00969618 0.134001
f 46/95/19 8/94/19 15/97/19

vt -1.00606 2.66881e-16
vn -0.991445 -3.538e-17 -0.130526
vt -1.00606 0.358505
f 16/98/20 46/99/20 15/22/20

vt -0.931776 2.89205e-16
f 22/100/20 46/99/20 16/98/20

v -0.939816 0.346534 1.11022e-16
vt -0.931776 0.346534
f 46/99/20 22/100/20 47/101/20

vt -0.85749 3.2408e-16
vn -0.991445 1.37702e-16 0.130526
vt -0.931776 3.01757e-16
f 23/102/21 47/101/21 22/103/21

v -0.93012 0.134001 0.0736498
vt -0.85749 0.134001
f 48/104/21 47/101/21 23/102/21

v -0.93012 0.358505 0.0736498
vt -0.85749 0.358505
f 47/101/21 48/104/21 49/105/21

vt 0.00969618 0.134001
vn -2.94042e-17 1.19726e-16 1
vt 1.86994 0.358505
vt 0.00969618 0.358505
f 48/106/22 36/107/22 49/108/22

vt 1.86994 0.134001
f 36/107/22 48/106/22 35/109/22

v -0.907793 0.134001 0.243242
vt 0.0320235 0.696574
vn 1.27233e-31 1 -3.17867e-16
vt 1.86994 0.866166
vt 0.00969618 0.866166
f 50/110/23 35/111/23 48/112/23

v -0.813905 0.134001 0.469908
vt 0.125911 0.469908
f 35/111/23 50/110/23 51/113/23

vn -0.92388 1.15994e-16 0.382683
vt -0.385954 4.61649e-16
f 50/9/24 25/114/24 51/6/24

vt -0.631295 3.92945e-16
f 25/114/24 50/9/24 24/115/24

vn -0.991445 3.34017e-18 0.130526
vt -0.686435 3.59003e-16
f 48/104/25 24/116/25 50/39/25

vt -0.85749 3.07598e-16
f 24/116/25 48/104/25 23/117/25

vt -0.0508118 5.5751e-16
vn -0.793353 1.8452e-16 0.608761
vt -0.296153 4.98513e-16
f 26/118/26 51/85/26 25/119/26

v -0.66455 0.134001 0.66455
f 51/85/26 26/118/26 52/84/26

vt 0.296153 6.24375e-16
vn -0.608761 2.40471e-16 0.793353
vt 0.0508118 5.79105e-16
f 27/120/27 52/80/27 26/121/27

v -0.469908 0.134001 0.813905
f 52/80/27 27/120/27 53/82/27

vt 0.631295 6.42956e-16
vn -0.382683 2.80034e-16 0.92388
vt 0.385954 6.14498e-16
f 28/122/28 53/76/28 27/123/28

v -0.243242 0.134001 0.907793
f 53/76/28 28/122/28 54/78/28

vt 0.931776 6.06593e-16
vn -0.130526 3.00514e-16 0.991445
vt 0.686435 0.134001
vt 0.686435 5.96887e-16
f 29/124/29 54/125/29 28/126/29

v -1.11022e-16 0.134001 0.939816
f 54/125/29 29/124/29 55/74/29

vt 0.931776 5.32865e-16
vn 0.130526 3.00514e-16 0.991445
v 0.243242 0.134001 0.907793
vt 1.17712 0.134001
f 29/127/30 56/128/30 55/74/30

vt 1.17712 5.23158e-16
f 56/128/30 29/127/30 30/129/30

vt 1.10526 4.41526e-16
vn 0.382683 2.80034e-16 0.92388
v 0.469908 0.134001 0.813905
vt 1.3506 0.134001
vt 1.10526 0.134001
f 30/130/31 57/131/31 56/132/31

vt 1.3506 4.13068e-16
f 57/131/31 30/130/31 31/133/31

vt 1.19506 3.49217e-16
vn 0.608761 2.40471e-16 0.793353
v 0.66455 0.134001 0.66455
vt 1.4404 0.134001
vt 1.19506 0.134001
f 31/134/32 58/135/32 57/136/32

vt 1.4404 3.03947e-16
f 58/135/32 31/134/32 32/137/32

vt 1.4404 2.23355e-16
vn 0.793353 1.8452e-16 0.608761
vt 1.19506 2.82352e-16
f 33/138/33 58/136/33 32/139/33

v 0.813905 0.134001 0.469908
f 58/136/33 33/138/33 59/135/33

v 0.907793 7.37284e-17 0.243242
vt 1.3506 1.91515e-16
vn 0.92388 1.15994e-16 0.382683
vt 1.10526 2.60219e-16
f 60/140/34 59/132/34 33/141/34

v 0.907793 0.134001 0.243242
f 59/132/34 60/140/34 61/131/34

vt 1.10283 3.02313e-16
vn 0.991445 2.80042e-18 0.130526
vt 0.931776 3.53718e-16
f 34/142/35 61/74/35 60/143/35

f 61/74/35 34/142/35 35/63/35

vt 1.75372 0.469908
vt 1.84761 0.696574
f 35/111/23 59/144/23 61/145/23

vt 1.60437 0.275266
f 35/111/23 58/146/23 59/144/23

vt 1.40972 0.125911
f 35/111/23 57/147/23 58/146/23

vt 1.18306 0.0320235
f 35/111/23 56/148/23 57/147/23

vt 0.939816 -4.25945e-17
f 35/111/23 55/149/23 56/148/23

vt 0.696574 0.0320235
f 35/111/23 54/150/23 55/149/23

vt 0.469908 0.125911
f 35/111/23 53/151/23 54/150/23

vt 0.275266 0.275266
f 35/111/23 52/152/23 53/151/23

f 35/111/23 51/113/23 52/152/23

vt -1.84761 0.696574
f 33/60/1 34/61/1 60/153/1

v -0.714131 0.625155 0.0736498
vt 0.225685 0.625155
f 49/108/22 36/107/22 62/154/22

v 0.714136 0.625155 0.0736498
vt 1.65395 0.625155
f 62/154/22 36/107/22 63/155/22

vt 0.866166 -0.898386
vn 0.777068 0.629417 -1.35429e-15
v 0.714136 0.625155 -0.0736498
vt 1.01347 -0.555237
vt 0.866166 -0.555237
f 36/156/36 64/157/36 63/158/36

vt 0.939816 -0.913791
f 64/157/36 36/156/36 37/159/36

vt 1.01347 -0.898386
f 64/157/36 37/159/36 39/160/36

v -0.714131 0.625155 -0.0736498
vt -0.225685 0.625155
vt -1.65395 0.625155
f 39/96/19 65/161/19 64/162/19

f 39/96/19 46/95/19 65/161/19

vt -0.939816 0.269278
vn -0.777061 0.629425 -1.33829e-15
vt -1.01347 0.627835
vt -1.01347 0.284683
f 47/163/37 65/164/37 46/165/37

vt -0.866166 0.284683
f 49/166/37 65/164/37 47/163/37

vt -0.866166 0.627835
f 65/164/37 49/166/37 62/167/37

v -0.396045 0.703127 0.0736498
vt -0.866166 0.695537
vn -0.238081 0.971245 -4.16334e-16
vt -1.01347 0.368033
vt -0.866166 0.368033
f 66/168/38 65/169/38 62/170/38

v -0.396045 0.703127 -0.0736498
vt -1.01347 0.695537
f 65/169/38 66/168/38 67/171/38

vt -0.866166 0.543773
vn -0.967859 -0.251493 1.04083e-16
v -0.494518 1.0821 -0.0736498
vt -1.01347 0.935328
vt -1.01347 0.543773
f 66/172/39 68/173/39 67/174/39

v -0.494518 1.0821 0.0736498
vt -0.866166 0.935328
f 68/173/39 66/172/39 69/175/39

vt 0.543772 0.703127
v -0.335278 1.0088 0.0736498
vt 0.604538 1.0088
vt 0.445298 1.0821
f 66/176/22 70/177/22 69/178/22

v 0.335283 1.0088 0.0736498
vt 1.2751 1.0088
f 70/177/22 66/176/22 71/179/22

v 0.396045 0.703127 0.0736498
vt 1.33586 0.703127
f 66/176/22 72/180/22 71/179/22

f 62/154/22 72/180/22 66/176/22

f 62/154/22 63/155/22 72/180/22

vt 0.866166 -1.45756
vn 0.238077 0.971246 -4.16334e-16
v 0.396045 0.703127 -0.0736498
vt 1.01347 -1.13005
vt 0.866166 -1.13005
f 63/181/40 73/182/40 72/183/40

vt 1.01347 -1.45756
f 73/182/40 63/181/40 64/184/40

vt -0.543772 0.703127
vt -1.33586 0.703127
f 64/162/19 67/185/19 73/186/19

f 64/162/19 65/161/19 67/185/19

v -0.335278 1.0088 -0.0736498
vt -0.604538 1.0088
f 73/186/19 67/185/19 74/187/19

vt -0.445298 1.0821
f 74/187/19 67/185/19 68/188/19

vt 1.01347 0.0479752
vn 0.418147 0.90838 -5.55112e-17
vt 0.866166 -0.127326
vt 1.01347 -0.127326
f 68/189/41 70/190/41 74/191/41

vt 0.866166 0.0479752
f 70/190/41 68/189/41 69/192/41

vt -0.866166 0.564787
vn -0.862809 -0.505529 1.73472e-16
v -0.340235 1.01726 -0.0736498
vt -1.01347 0.574592
vt -1.01347 0.564787
f 70/193/42 75/194/42 74/195/42

v -0.340235 1.01726 0.0736498
vt -0.866166 0.574592
f 75/194/42 70/193/42 76/196/42

v 0.340235 1.01726 0.0736498
vt 1.28005 1.01726
vt 0.599581 1.01726
f 70/177/22 77/197/22 76/198/22

f 77/197/22 70/177/22 71/179/22

v 0.335283 1.0088 -0.0736498
vt 1.01347 1.51475
vn 0.863025 -0.505161 1.8735e-16
vt 0.866166 1.52455
vt 0.866166 1.51475
f 78/199/43 77/200/43 71/201/43

v 0.340235 1.01726 -0.0736498
vt 1.01347 1.52455
f 77/200/43 78/199/43 79/202/43

vt -1.2751 1.0088
vt -0.599581 1.01726
vt -1.28005 1.01726
f 78/203/19 75/204/19 79/205/19

f 75/204/19 78/203/19 74/187/19

f 78/203/19 73/186/19 74/187/19

v 0.494523 1.0821 -0.0736498
vt -1.43434 1.0821
f 73/186/19 78/203/19 80/206/19

vt -1.01347 1.5801
vn -0.418147 0.90838 -5.55112e-17
v 0.494523 1.0821 0.0736498
vt -0.866166 1.7554
vt -1.01347 1.7554
f 78/207/44 81/208/44 80/209/44

vt -0.866166 1.5801
f 81/208/44 78/207/44 71/210/44

vt 1.43434 1.0821
f 71/179/22 72/180/22 81/211/22

vt 0.866166 1.0165
vn 0.967856 -0.251505 1.45717e-16
vt 1.01347 1.40806
vt 0.866166 1.40806
f 72/212/45 80/213/45 81/214/45

vt 1.01347 1.0165
f 80/213/45 72/212/45 73/215/45

v -0.366851 1.14855 -0.0736498
vt -0.572965 1.14855
f 79/205/19 75/204/19 82/216/19

vt -0.866166 0.877849
vn -0.980064 -0.198682 -3.46945e-17
vt -1.01347 1.01181
vt -1.01347 0.877849
f 76/217/46 82/218/46 75/219/46

v -0.366851 1.14855 0.0736498
vt -0.866166 1.01181
f 82/218/46 76/217/46 83/220/46

v 0.366856 1.14855 0.0736498
vt 1.30667 1.14855
vt 0.572965 1.14855
f 76/198/22 84/221/22 83/222/22

f 76/198/22 77/197/22 84/221/22

vt 0.866166 1.25134
vn 0.980057 -0.198717 -2.77556e-17
v 0.366856 1.14855 -0.0736498
vt 1.01347 1.3853
vt 0.866166 1.3853
f 77/223/47 85/224/47 84/225/47

vt 1.01347 1.25134
f 85/224/47 77/223/47 79/226/47

vt -1.30667 1.14855
f 79/205/19 82/216/19 85/227/19

v -0.425437 1.20759 -0.0736498
vt -0.514379 1.20759
f 85/227/19 82/216/19 86/228/19

vt -0.866166 0.411758
vn -0.709868 -0.704334 4.16334e-17
vt -1.01347 0.494937
vt -1.01347 0.411758
f 83/229/48 86/230/48 82/231/48

v -0.425437 1.20759 0.0736498
vt -0.866166 0.494937
f 86/230/48 83/229/48 87/232/48

v 0.425437 1.20759 0.0736498
vt 1.36525 1.20759
vt 0.514379 1.20759
f 83/222/22 88/233/22 87/234/22

f 83/222/22 84/221/22 88/233/22

vt 1.01347 1.73565
vn 0.709898 -0.704305 5.55112e-17
vt 0.866166 1.81882
vt 0.866166 1.73565
f 85/235/49 88/236/49 84/237/49

v 0.425437 1.20759 -0.0736498
vt 1.01347 1.81882
f 88/236/49 85/235/49 89/238/49

vt -1.36525 1.20759
f 85/227/19 86/228/19 89/239/19

v -0.470305 1.30725 -0.0736498
vt -0.469511 1.30725
f 89/239/19 86/228/19 90/240/19

vt -1.01347 0.889958
vn -0.911841 -0.410543 3.46945e-17
v -0.470305 1.30725 0.0736498
vt -0.866166 0.999248
vt -1.01347 0.999248
f 86/241/50 91/242/50 90/243/50

vt -0.866166 0.889958
f 91/242/50 86/241/50 87/244/50

v 0.470305 1.30725 0.0736498
vt 1.41012 1.30725
vt 0.469511 1.30725
f 87/234/22 92/245/22 91/246/22

f 87/234/22 88/233/22 92/245/22

vt 1.01347 1.66161
vn 0.911848 -0.410527 6.245e-17
vt 0.866166 1.77091
vt 0.866166 1.66161
f 89/247/51 92/248/51 88/249/51

v 0.470305 1.30725 -0.0736498
vt 1.01347 1.77091
f 92/248/51 89/247/51 93/250/51

vt -1.41012 1.30725
f 89/239/19 90/240/19 93/251/19

v -0.215001 1.41399 -0.0736498
vt -0.724815 1.41399
f 93/251/19 90/240/19 94/252/19

v -0.469719 1.46293 -0.0736498
vt -0.470097 1.46293
f 94/252/19 90/240/19 95/253/19

vt -1.01347 1.30901
vn -0.999993 0.00376592 -1.57209e-18
v -0.469719 1.46293 0.0736498
vt -0.866166 1.46469
vt -1.01347 1.46469
f 90/254/52 96/255/52 95/256/52

vt -0.866166 1.30901
f 96/255/52 90/254/52 91/257/52

v -0.215001 1.41399 0.0736498
vt 0.724815 1.41399
vt 0.470097 1.46293
f 91/246/22 97/258/22 96/259/22

f 91/246/22 92/245/22 97/258/22

v -0.153808 1.41179 0.0736498
vt 0.786008 1.41179
f 97/258/22 92/245/22 98/260/22

v 0.153813 1.4118 0.0736498
vt 1.09363 1.4118
f 92/245/22 99/261/22 98/260/22

v 0.215001 1.41399 0.0736498
vt 1.15482 1.41399
f 99/261/22 92/245/22 100/262/22

v 0.469714 1.46293 0.0736498
vt 1.40953 1.46293
f 100/262/22 92/245/22 101/263/22

vt 1.01347 1.30189
vn 0.999993 0.00379728 -1.46367e-18
vt 0.866166 1.45756
vt 0.866166 1.30189
f 93/264/53 101/265/53 92/266/53

v 0.469714 1.46293 -0.0736498
vt 1.01347 1.45756
f 101/265/53 93/264/53 102/267/53

v 0.215001 1.41399 -0.0736498
vt -1.15482 1.41399
vt -1.40953 1.46293
f 93/251/19 103/268/19 102/269/19

v 0.153813 1.4118 -0.0736498
vt -1.09363 1.4118
f 103/268/19 93/251/19 104/270/19

v -0.153808 1.41179 -0.0736498
vt -0.786008 1.41179
f 104/270/19 93/251/19 105/271/19

f 93/251/19 94/252/19 105/271/19

vt 1.01347 -0.673549
vn 0.0359258 0.999354 6.38235e-16
vt 0.866166 -0.734781
vt 1.01347 -0.734781
f 94/272/54 98/273/54 105/274/54

vt 0.866166 -0.673549
f 98/273/54 94/272/54 97/275/54

v -0.296045 1.46581 -0.0736498
vt 1.01347 0.247206
vn 0.538673 0.842515 -3.22355e-15
vt 0.866166 0.151013
vt 1.01347 0.151013
f 106/276/55 97/277/55 94/278/55

v -0.296045 1.46581 0.0736498
vt 0.866166 0.247206
f 97/277/55 106/276/55 107/279/55

v -0.0810347 1.45589 -0.0736498
vt -1.01347 -0.790746
vn -0.0461041 -0.998937 4.46157e-15
vt -0.866166 -0.575507
vt -1.01347 -0.575507
f 108/280/56 107/281/56 106/282/56

v -0.0810347 1.45589 0.0736498
vt -0.866166 -0.790746
f 107/281/56 108/280/56 109/283/56

vt -1.01347 1.40383
vn -0.518201 0.855259 6.04621e-18
vt -0.866166 1.48892
vt -1.01347 1.48892
f 105/284/57 109/285/57 108/286/57

vt -0.866166 1.40383
f 109/285/57 105/284/57 98/287/57

vt 0.858781 1.45589
f 99/261/22 109/288/22 98/260/22

v 0.0810347 1.45589 0.0736498
vt 1.02085 1.45589
f 109/288/22 99/261/22 110/289/22

vt 0.866166 -0.203794
vn 0.518176 0.855274 -1.63259e-15
v 0.0810347 1.45589 -0.0736498
vt 1.01347 -0.1187
vt 0.866166 -0.1187
f 99/290/58 111/291/58 110/292/58

vt 1.01347 -0.203794
f 111/291/58 99/290/58 104/293/58

vt -0.866166 1.20466
vn -0.0357706 0.99936 -6.37995e-16
vt -1.01347 1.14343
vt -0.866166 1.14343
f 100/294/59 104/295/59 99/296/59

vt -1.01347 1.20466
f 104/295/59 100/294/59 103/297/59

v 0.296045 1.46581 0.0736498
vt -0.866166 1.83087
vn -0.538745 0.842469 9.53508e-18
vt -1.01347 1.73468
vt -0.866166 1.73468
f 112/298/60 103/299/60 100/300/60

v 0.296045 1.46581 -0.0736498
vt -1.01347 1.83087
f 103/299/60 112/298/60 113/301/60

vt 0.866166 1.08689
vn 0.0461041 -0.998937 1.27204e-15
vt 1.01347 1.30213
vt 0.866166 1.30213
f 110/302/61 113/303/61 112/304/61

vt 1.01347 1.08689
f 113/303/61 110/302/61 111/305/61

vt -1.02085 1.45589
vt -0.643771 1.46581
vt -1.23586 1.46581
f 111/306/19 106/307/19 113/308/19

vt -0.858781 1.45589
f 111/306/19 108/309/19 106/307/19

f 104/270/19 108/309/19 111/306/19

f 108/309/19 104/270/19 105/271/19

v -0.424288 1.51061 -0.0736498
vt -0.515528 1.51061
f 106/307/19 114/310/19 113/308/19

v -0.424473 1.46276 -0.0736498
vt -0.515343 1.46276
f 106/307/19 115/311/19 114/310/19

f 115/311/19 106/307/19 94/252/19

f 94/252/19 95/253/19 115/311/19

vt 1.01347 -0.464454
vn 0.00385519 0.999993 -3.33067e-16
v -0.424473 1.46276 0.0736498
vt 0.866166 -0.5097
vt 1.01347 -0.5097
f 95/312/62 116/313/62 115/314/62

vt 0.866166 -0.464454
f 116/313/62 95/312/62 96/315/62

vt 0.515343 1.46276
f 96/259/22 97/258/22 116/316/22

vt 0.643771 1.46581
f 107/317/22 116/316/22 97/258/22

v -0.424288 1.51061 0.0736498
vt 0.515528 1.51061
f 116/316/22 107/317/22 117/318/22

vt 1.23586 1.46581
f 117/318/22 107/317/22 112/319/22

f 107/317/22 110/289/22 112/319/22

f 109/288/22 110/289/22 107/317/22

v 0.424284 1.51061 0.0736498
vt 1.3641 1.51061
f 117/318/22 112/319/22 118/320/22

v 0.424477 1.46275 0.0736498
vt 1.36429 1.46275
f 112/319/22 119/321/22 118/320/22

f 119/321/22 112/319/22 100/262/22

f 100/262/22 101/263/22 119/321/22

vt -0.866166 1.41516
vn -0.00385601 0.999993 -2.77556e-16
v 0.424477 1.46275 -0.0736498
vt -1.01347 1.36992
vt -0.866166 1.36992
f 101/322/63 120/323/63 119/324/63

vt -1.01347 1.41516
f 120/323/63 101/322/63 102/325/63

vt -1.36429 1.46275
f 102/269/19 103/268/19 120/326/19

f 113/308/19 120/326/19 103/268/19

v 0.424284 1.51061 -0.0736498
vt -1.3641 1.51061
f 120/326/19 113/308/19 121/327/19

f 113/308/19 114/310/19 121/327/19

v 0.424923 1.52408 -0.0736498
vt -1.36474 1.52408
f 121/327/19 114/310/19 122/328/19

v -0.424923 1.52407 -0.0736498
vt -0.514893 1.52407
f 122/328/19 114/310/19 123/329/19

vt -0.866166 1.48465
vn -0.99889 -0.0471039 4.33681e-18
vt -1.01347 1.49813
vt -1.01347 1.48465
f 117/330/64 123/331/64 114/332/64

v -0.424923 1.52407 0.0736498
vt -0.866166 1.49813
f 123/331/64 117/330/64 124/333/64

v 0.424923 1.52408 0.0736498
vt 1.36474 1.52408
vt 0.514893 1.52407
f 117/318/22 125/334/22 124/335/22

f 117/318/22 118/320/22 125/334/22

vt 0.866166 1.5736
vn 0.998875 -0.0474286 -1.73472e-18
vt 1.01347 1.58709
vt 0.866166 1.58709
f 118/336/65 122/337/65 125/338/65

vt 1.01347 1.5736
f 122/337/65 118/336/65 121/339/65

vt 0.866166 1.50507
vn 0.999992 0.00405019 -1.30104e-18
vt 1.01347 1.45721
vt 1.01347 1.50507
f 118/340/66 120/341/66 121/342/66

vt 0.866166 1.45721
f 120/341/66 118/340/66 119/343/66

v 0.6996 1.56173 -0.0736498
vt 1.01347 1.83635
vn 0.135831 -0.990732 3.33067e-16
vt 0.866166 1.55911
vt 1.01347 1.55911
f 126/344/67 125/345/67 122/346/67

v 0.6996 1.56173 0.0736498
vt 0.866166 1.83635
f 125/345/67 126/344/67 127/347/67

v 0.471362 1.63616 -0.0736498
vt 1.01347 -0.834406
vn 0.310021 0.95073 -4.16334e-16
vt 0.866166 -1.07447
vt 1.01347 -1.07447
f 128/348/68 127/349/68 126/350/68

v 0.471362 1.63616 0.0736498
vt 0.866166 -0.834406
f 127/349/68 128/348/68 129/351/68

v 0.382051 2.03806 -0.0736498
vt 1.01347 1.70277
vn 0.976187 0.21693 -2.77556e-17
vt 0.866166 1.29107
vt 1.01347 1.29107
f 130/352/69 129/353/69 128/354/69

v 0.382051 2.03806 0.0736498
vt 0.866166 1.70277
f 129/353/69 130/352/69 131/355/69

v 0.20343 2.14722 -0.0736498
vt 1.01347 0.144154
vn 0.52145 0.853282 -3.05311e-16
vt 0.866166 -0.06518
vt 1.01347 -0.06518
f 132/356/70 131/357/70 130/358/70

v 0.20343 2.14722 0.0736498
vt 0.866166 0.144154
f 131/357/70 132/356/70 133/359/70

v 0 2.08767 -0.0736498
vt -1.01347 1.4884
vn -0.280899 0.959737 -3.60822e-16
vt -0.866166 1.70037
vt -1.01347 1.70037
f 134/360/71 133/361/71 132/362/71

v 0 2.08767 0.0736498
vt -0.866166 1.4884
f 133/361/71 134/360/71 135/363/71

v -0.20343 2.14722 -0.0736498
vt 1.01347 -0.103587
vn 0.280899 0.959737 -3.60822e-16
vt 0.866166 -0.315551
vt 1.01347 -0.315551
f 136/364/72 135/365/72 134/366/72

v -0.20343 2.14722 0.0736498
vt 0.866166 -0.103587
f 135/365/72 136/364/72 137/367/72

v -0.382051 2.03806 -0.0736498
vt -1.01347 1.53868
vn -0.52145 0.853282 -3.05311e-16
vt -0.866166 1.74801
vt -1.01347 1.74801
f 138/368/73 137/369/73 136/370/73

v -0.382051 2.03806 0.0736498
vt -0.866166 1.53868
f 137/369/73 138/368/73 139/371/73

vt -1.01347 2.11052
vn -0.976187 0.21693 -2.77556e-17
v -0.471362 1.63616 0.0736498
vt -0.866166 1.69882
vt -0.866166 2.11052
f 138/372/74 140/373/74 139/374/74

v -0.471362 1.63616 -0.0736498
vt -1.01347 1.69882
f 140/373/74 138/372/74 141/375/74

vt -1.41118 1.63616
vt -0.468454 1.63616
vt -0.557765 2.03806
f 128/376/19 141/377/19 138/378/19

vt -1.63942 1.56173
f 126/379/19 141/377/19 128/376/19

v -0.6996 1.56173 -0.0736498
vt -0.240216 1.56173
f 126/379/19 142/380/19 141/377/19

f 122/328/19 142/380/19 126/379/19

f 122/328/19 123/329/19 142/380/19

vt -1.01347 -0.303078
vn -0.135848 -0.99073 4.16334e-16
v -0.6996 1.56173 0.0736498
vt -0.866166 -0.025831
vt -1.01347 -0.025831
f 123/381/75 143/382/75 142/383/75

vt -0.866166 -0.303078
f 143/382/75 123/381/75 124/384/75

vt 0.240216 1.56173
f 124/335/22 125/334/22 143/385/22

vt 1.63942 1.56173
f 143/385/22 125/334/22 127/386/22

vt 1.41118 1.63616
f 143/385/22 127/386/22 129/387/22

vt 0.468454 1.63616
f 143/385/22 129/387/22 140/388/22

vt 1.32187 2.03806
f 140/388/22 129/387/22 131/389/22

vt 0.557765 2.03806
f 140/388/22 131/389/22 139/390/22

vt 0.939816 2.08767
f 139/390/22 131/389/22 135/391/22

vt 1.14325 2.14722
f 135/391/22 131/389/22 133/392/22

vt 0.736386 2.14722
f 137/393/22 139/390/22 135/391/22

vt -0.866166 0.952617
vn -0.310021 0.95073 -4.16334e-16
vt -1.01347 0.71255
vt -0.866166 0.71255
f 140/394/76 142/395/76 143/396/76

vt -1.01347 0.952617
f 142/395/76 140/394/76 141/397/76

vt -1.32187 2.03806
f 128/376/19 138/378/19 130/398/19

vt -0.939816 2.08767
f 130/398/19 138/378/19 134/399/19

vt -0.736386 2.14722
f 134/399/19 138/378/19 136/400/19

vt -1.14325 2.14722
f 132/401/19 130/398/19 134/399/19

vt -1.01347 1.51258
vn -0.999993 0.00384768 -1.35525e-18
vt -0.866166 1.46473
vt -0.866166 1.51258
f 114/402/77 116/403/77 117/404/77

vt -1.01347 1.46473
f 116/403/77 114/402/77 115/405/77

